<?xml version="1.0" encoding="UTF-8"?>
<svg width="37px" height="37px" viewBox="0 0 37 37" version="1.1" xmlns="http://www.w3.org/2000/svg" xmlns:xlink="http://www.w3.org/1999/xlink">
    <!-- Generator: sketchtool 55.2 (78181) - https://sketchapp.com -->
    <title>74634360-136E-418B-9317-06F045395CAE</title>
    <desc>Created with sketchtool.</desc>
    <defs>
        <linearGradient x1="-26.7097024%" y1="31.1432658%" x2="88.5296339%" y2="78.2850846%" id="linearGradient-1">
            <stop stop-color="#64BC46" offset="0%"></stop>
            <stop stop-color="#64BC46" offset="51.603913%"></stop>
            <stop stop-color="#A9D04A" offset="100%"></stop>
        </linearGradient>
        <linearGradient x1="56.962192%" y1="75.7629665%" x2="48.8458987%" y2="-47.7576442%" id="linearGradient-2">
            <stop stop-color="#64BC46" offset="0%"></stop>
            <stop stop-color="#2874BA" offset="51.603913%"></stop>
            <stop stop-color="#A84599" offset="100%"></stop>
        </linearGradient>
    </defs>
    <g id="🖥-Oppija---Etusivu" stroke="none" stroke-width="1" fill="none" fill-rule="evenodd">
        <g id="Etusivu" transform="translate(-561.000000, -2030.000000)">
            <g id="Haetuimmat-palvelut-/-desktop" transform="translate(87.000000, 1923.000000)">
                <g id="Group-10">
                    <g id="Group-5" transform="translate(0.000000, 67.000000)">
                        <g id="Icons-/-ehoks" transform="translate(474.000000, 40.000000)">
                            <circle id="Oval" fill="#FFFFFF" cx="18.5" cy="18.5" r="18.5"></circle>
                            <g id="g1544" transform="translate(7.000000, 7.000000)" fill-rule="nonzero">
                                <g id="g8348-0-8" transform="translate(0.184616, 0.070472)">
                                    <path d="M5.49994932,2.06150959 C11.7495804,-1.57795519 18.4458392,-0.284641396 21.4634148,5.85053945 C24.2262248,11.4926097 22.0883766,18.3061211 16.594755,21.3673888 C10.4832017,24.7077127 3.960313,21.7838261 1.09552037,15.6985074 C-1.24918346,10.7393289 0.754683699,4.82703118 5.49994932,2.06150959 L5.49994932,2.06150959 Z" id="path1909-3-1-9-01-4" fill="url(#linearGradient-1)"></path>
                                    <path d="M12.5015807,0.0945637068 C10.2728004,0.0769937793 7.89267554,0.736232458 5.57165017,2.07318931 C10.069784,1.3794118 14.2092847,3.27769355 16.4034382,7.73872171 C19.0038211,13.0656188 17.2524105,19.4910561 12.3066145,22.7688262 C13.7241662,22.6315687 15.1706558,22.1972872 16.5950341,21.4187744 C22.0885064,18.3573919 24.2261917,11.5439361 21.4633504,5.90196363 C19.5773603,2.0674748 16.2543691,0.124149751 12.5015807,0.0945637068 L12.5015807,0.0945637068 Z" id="path1909-3-1-9-8-9-0" fill="url(#linearGradient-2)"></path>
                                </g>
                                <g id="g2124" transform="translate(11.844012, 11.772743) rotate(16.938788) translate(-11.844012, -11.772743) translate(5.970255, 3.955871)" fill="#FFFFFF">
                                    <path d="M3.03558578,0.55272319 C2.64293349,0.550354119 2.27357485,0.778465515 2.03954198,1.14504107 C2.03098307,1.15990429 2.0228717,1.17472285 2.01526378,1.18961957 L2.01526378,1.18975748 C1.77961982,1.65210647 2.00849497,2.1499474 2.19160517,2.55364584 L2.18880814,2.55610257 C2.18880814,2.55610257 3.93384552,6.58215114 4.79923458,9.05030385 L4.79531874,9.05091803 L4.79979399,9.05652384 C3.3897286,9.28126003 1.79689426,9.8450547 1.00351187,11.0067853 C0.1451825,12.2636138 0.482252263,13.9791665 1.7449255,14.8307935 C3.00764908,15.6824439 4.78599345,15.3931286 5.66620117,14.1514213 C5.69831104,14.1062119 5.72901122,14.0608919 5.75873802,14.0156311 C6.09003472,13.5091994 6.26179458,12.9859659 6.335541,12.4650954 C6.46815925,11.8079544 6.45530411,11.0528976 6.27902986,9.73632313 C6.28070807,9.7359267 6.2829457,9.73542977 6.28406451,9.73492726 C6.5820598,9.6773197 6.87192693,9.62167307 7.16823281,9.5654022 C7.17555602,9.56428173 7.18285025,9.56290385 7.19010557,9.56127043 C7.19122438,9.56108226 7.19178378,9.5608539 7.1929026,9.56065624 L7.19290819,9.56051777 C7.3624152,9.52117775 7.48649786,9.34941018 7.49116081,9.14764679 C7.4963976,8.91035963 7.33616084,8.71437609 7.13325878,8.70990141 C7.10416035,8.70939599 7.07508949,8.71293466 7.04665722,8.72044302 L6.15446704,8.85132482 C5.9131619,7.54188768 5.32458344,5.57502425 4.79080994,3.91961348 C4.50389087,2.78870252 4.01583198,1.0500778 3.74292043,0.825991537 C3.51478929,0.638659087 3.27083256,0.554230171 3.03525014,0.55272319 L3.03558578,0.55272319 Z M4.94312486,9.99572044 L4.94338778,9.99572044 C4.98159517,10.1199964 5.01467281,10.2352098 5.04056769,10.3368582 C5.41141995,11.7937668 5.00605238,12.9433936 5.00605238,12.9433936 C4.94852871,13.0702 4.88344189,13.1903799 4.8100367,13.3026006 C4.22455175,14.1975135 3.09238222,14.2304387 2.43975184,13.8313293 C1.71364914,13.3587715 1.46775128,12.4295548 1.82199479,11.6672747 L1.82199479,11.6671368 L1.82200598,11.6667052 C1.8410817,11.6257113 1.86239505,11.5854215 1.88496706,11.5454884 C2.11213043,11.2167292 2.49782372,10.8201989 3.14129664,10.5271862 C3.77585263,10.2382411 4.422475,10.0829467 4.92560987,9.99781145 L4.91822572,10.0007149 C4.91822572,10.0007149 4.94233609,9.99591307 4.94311926,9.99572044 L4.94312486,9.99572044 Z" id="path1313-6-9-8-2-4-9-1-1-36-2-4-9-7-4"></path>
                                    <path d="M3.28700498,0.86555775 C2.50878247,0.89105192 2.48042061,2.82649431 3.25120303,2.93686072 L8.29408106,2.91063512 L5.38592784,5.27640188 C4.6000247,5.64556929 4.66978816,7.40666808 5.43901542,7.00405395 L11.426237,2.44794498 C11.9830356,2.17184413 11.3031007,1.38224572 10.6887896,1.28669507 L3.41396764,0.873969263 C3.37206817,0.866950829 3.3295142,0.864136755 3.28701616,0.865560542 L3.28700498,0.86555775 Z" id="path2070"></path>
                                    <polygon id="path2074" points="4.19144054 2.67542991 8.58628651 2.65068951 5.28428947 5.66231079"></polygon>
                                </g>
                            </g>
                        </g>
                    </g>
                </g>
            </g>
        </g>
    </g>
</svg>