<?xml version="1.0" encoding="UTF-8"?>
<svg width="36px" height="36px" viewBox="0 0 36 36" version="1.1" xmlns="http://www.w3.org/2000/svg" xmlns:xlink="http://www.w3.org/1999/xlink">
    <!-- Generator: sketchtool 55.2 (78181) - https://sketchapp.com -->
    <title>6A753C78-593D-4F3C-946F-A9E3AAD7F6F8</title>
    <desc>Created with sketchtool.</desc>
    <defs>
        <path d="M13,0 C5.824,0 0,5.824 0,13 C0,20.176 5.824,26 13,26 C20.176,26 26,20.176 26,13 C26,5.824 20.176,0 13,0 Z M14.3,22.1 L11.7,22.1 L11.7,19.5 L14.3,19.5 L14.3,22.1 Z M16.991,12.025 L15.821,13.221 C14.885,14.17 14.3,14.95 14.3,16.9 L11.7,16.9 L11.7,16.25 C11.7,14.82 12.285,13.52 13.221,12.571 L14.833,10.933 C15.314,10.465 15.6,9.815 15.6,9.1 C15.6,7.67 14.43,6.5 13,6.5 C11.57,6.5 10.4,7.67 10.4,9.1 L7.8,9.1 C7.8,6.227 10.127,3.9 13,3.9 C15.873,3.9 18.2,6.227 18.2,9.1 C18.2,10.244 17.732,11.284 16.991,12.025 Z" id="path-1"></path>
        <filter x="-30.8%" y="-26.9%" width="161.5%" height="161.5%" filterUnits="objectBoundingBox" id="filter-2">
            <feOffset dx="0" dy="1" in="SourceAlpha" result="shadowOffsetOuter1"></feOffset>
            <feGaussianBlur stdDeviation="2.5" in="shadowOffsetOuter1" result="shadowBlurOuter1"></feGaussianBlur>
            <feColorMatrix values="0 0 0 0 0   0 0 0 0 0   0 0 0 0 0  0 0 0 0.13 0" type="matrix" in="shadowBlurOuter1" result="shadowMatrixOuter1"></feColorMatrix>
            <feOffset dx="0" dy="1" in="SourceAlpha" result="shadowOffsetOuter2"></feOffset>
            <feGaussianBlur stdDeviation="1" in="shadowOffsetOuter2" result="shadowBlurOuter2"></feGaussianBlur>
            <feColorMatrix values="0 0 0 0 0   0 0 0 0 0   0 0 0 0 0  0 0 0 0.2 0" type="matrix" in="shadowBlurOuter2" result="shadowMatrixOuter2"></feColorMatrix>
            <feMerge>
                <feMergeNode in="shadowMatrixOuter1"></feMergeNode>
                <feMergeNode in="shadowMatrixOuter2"></feMergeNode>
            </feMerge>
        </filter>
    </defs>
    <g id="🖥-Oppija---Etusivu" stroke="none" stroke-width="1" fill="none" fill-rule="evenodd">
        <g id="Etusivu" transform="translate(-991.000000, -2367.000000)">
            <g id="Haetuimmat-palvelut-/-desktop" transform="translate(87.000000, 1923.000000)">
                <g id="Group-10">
                    <g id="Group-5-Copy" transform="translate(0.000000, 407.000000)">
                        <g id="Group-4-Copy-2" transform="translate(868.000000, 0.000000)">
                            <g id="Icons-/-faq" transform="translate(41.000000, 41.000000)">
                                <g id="icons/action/help">
                                    <g id="help">
                                        <g id="Shape">
                                            <use fill="black" fill-opacity="1" filter="url(#filter-2)" xlink:href="#path-1"></use>
                                            <use fill="#FFFFFF" fill-rule="evenodd" xlink:href="#path-1"></use>
                                        </g>
                                    </g>
                                </g>
                            </g>
                        </g>
                    </g>
                </g>
            </g>
        </g>
    </g>
</svg>