<?xml version="1.0" encoding="UTF-8"?>
<svg width="672px" height="789px" viewBox="0 0 672 789" version="1.1" xmlns="http://www.w3.org/2000/svg" xmlns:xlink="http://www.w3.org/1999/xlink">
    <!-- Generator: sketchtool 60 (101010) - https://sketch.com -->
    <title>418C7923-0E7F-4025-AA76-B516DFEB057E@1x</title>
    <desc>Created with sketchtool.</desc>
    <g id="Asset-Artboard-Page" stroke="none" stroke-width="1" fill="none" fill-rule="evenodd">
        <g id="Assets-/-Loyda-ma-polkusi-puu-/-Ammatillinen" transform="translate(0.000000, -2.000000)">
            <g id="Ammatillinen-koulutus-puu" transform="translate(0.000000, 2.000000)">
                <circle id="path4412-7-7-7-6-7" fill="#378703" fill-rule="nonzero" opacity="0.103" cx="345.5" cy="307.5" r="307.5"></circle>
                <ellipse id="path5571-9-4-4-8-4" fill="#9FA5AA" fill-rule="nonzero" opacity="0.19800002" cx="336" cy="720.5" rx="336" ry="33.5"></ellipse>
                <g id="g5554-8-8-2-2-5" transform="translate(368.000000, 682.000000)" fill-rule="nonzero">
                    <polygon id="path5510-9-6-4-3-0" fill="#EEE4A4" transform="translate(11.638659, 94.726739) rotate(5.722598) translate(-11.638659, -94.726739) " points="14.5156329 106.099261 5.28766125 102.874162 1.19260812 90.72915 7.08842066 83.3542164 18.9026377 86.5831962 22.0847099 98.5724742"></polygon>
                    <polygon id="path5518-4-1-8-7-0" fill="#EEE4A4" transform="translate(168.860872, 17.734880) rotate(5.722598) translate(-168.860872, -17.734880) " points="153.790383 15.6095863 186.854966 4.08952778 163.010663 31.3802324 150.866777 23.5257243"></polygon>
                    <path d="M150.163029,7.28777392 L11.8522187,90.5085795 L24.1202992,93.8028815 L158.517579,10.763892 L158.281092,10.6554664 C157.373897,11.2541744 156.099042,11.3586722 154.8081,11.3575304 C152.135653,11.3533646 149.966822,9.93361365 149.963044,8.1858185 C149.963361,7.88160411 150.031154,7.57914229 150.163029,7.28777392 Z" id="path5512-3-0-7-1-4" fill="#EBCE24" transform="translate(85.184899, 50.545328) rotate(5.722598) translate(-85.184899, -50.545328) "></path>
                    <path d="M157.53161,11.4028865 L22.8104972,94.3768033 L25.8385383,105.842862 L160.469528,19.8232249 C159.427438,19.0163169 158.193282,19.5081068 156.795822,16.8968413 C155.349403,14.189155 157.290776,12.5611142 157.53161,11.4028865 Z" id="path5514-7-0-2-0-7" fill="#E2C415" transform="translate(91.640012, 58.622874) rotate(5.722598) translate(-91.640012, -58.622874) "></path>
                    <path d="M17.2554862,113.794834 L157.775723,23.558417 C157.197696,22.3696277 158.881715,20.2579517 159.616292,19.0711321 L25.0875396,104.899982 L17.2554862,113.794834 Z" id="path5516-2-2-4-9-6" fill="#D1B513" transform="translate(88.435889, 66.432983) rotate(5.722598) translate(-88.435889, -66.432983) "></path>
                    <path d="M187.760522,5.4557998 L178.2028,8.78658488 C178.394909,10.6223406 179.403049,12.2707989 180.939878,13.2621134 L187.760522,5.4557998 Z" id="path5518-1-2-3-4-6-2" fill="#737373" transform="translate(182.981661, 9.358957) rotate(5.722598) translate(-182.981661, -9.358957) "></path>
                    <ellipse id="path5545-2-9-6-8-1" fill="#737373" transform="translate(11.024276, 94.144774) rotate(5.722598) translate(-11.024276, -94.144774) " cx="11.0242758" cy="94.1447744" rx="2.79691534" ry="2.83837609"></ellipse>
                </g>
                <path d="M350.99327,674 C333.490534,674 316.704754,676.40911 304.328613,680.697138 C291.952473,684.985167 285,690.800938 285,696.865046 C285.009503,697.261567 285.048776,697.657935 285.11778,698.053748 L285.11778,698.052233 L287.510341,712.549959 L287.510341,712.553049 C289.948809,724.07863 317.647399,732.998621 351.002748,733 C384.333573,732.988899 411.998862,724.073525 414.440808,712.556547 L414.496894,712.551941 L416.887829,698.054273 L416.826134,698.057363 C416.913941,697.661117 416.971916,697.264146 417,696.866853 C417,690.802654 410.047232,684.98681 397.670732,680.698777 C385.294233,676.410744 368.508046,674.001788 351.005048,674.001865 L350.99327,674 Z" id="path4726-2-8-1-0-2-9-3" fill="#A5A5A4" fill-rule="nonzero"></path>
                <ellipse id="path4726-2-4-0-4-7-6-8-4" fill="#868685" fill-rule="nonzero" cx="351" cy="697" rx="62" ry="17"></ellipse>
                <path d="M278,598 L293.281229,691.080352 C294.094793,701.604312 319.456724,709.993866 350.476026,710 C380.51982,709.98908 405.427433,702.097723 407.523119,691.926049 L407.578232,691.926049 L423,598 L350.509645,602.391108 L278,598 Z" id="path4726-2-2-1-2-3-4-3" fill="#A5A5A4" fill-rule="nonzero"></path>
                <path d="M348.523306,546 C301.841986,546 264,558.320189 264,573.517023 C264.012423,573.994256 264.062982,574.471304 264.151627,574.947682 L264.095469,574.944775 L267.160084,592.391956 L267.160084,592.393382 C270.28326,606.263648 305.758843,616.998274 348.479558,617 C391.169031,616.986656 426.602237,606.257572 429.729902,592.397605 L429.797292,592.392121 L432.859604,574.944994 L432.780983,574.949327 C432.89222,574.472465 432.965251,573.99474 433,573.516639 C433,566.218748 424.095079,559.219734 408.24351,554.059344 C392.391942,548.898955 370.89252,546 348.47501,546 L348.523306,546 Z" id="path4726-2-5-7-8-5-7" fill="#BABAB9" fill-rule="nonzero"></path>
                <ellipse id="path4726-2-4-07-2-0-6-8" fill="#4E3318" fill-rule="nonzero" opacity="0.58899997" cx="351.5" cy="575.5" rx="64.5" ry="18.5"></ellipse>
                <path d="M351.5,556 C334.392498,556 317.985762,557.984869 305.889493,561.517913 C293.793224,565.050957 286.998409,569.842729 287,574.838975 C287.016777,577.290443 288.671837,579.717383 291.872345,581.983666 C301.812508,574.92322 325.360757,570.312964 351.5,570.309814 C377.652073,570.315952 401.203041,574.933366 411.125402,582 C414.333828,579.728679 415.989793,577.295984 416,574.838975 C416.001591,569.842729 409.206776,565.050957 397.110507,561.517913 C385.014238,557.984869 368.607502,556 351.5,556 L351.5,556 Z" id="path4726-2-4-6-1-5-2-0-2" fill="#868685" fill-rule="nonzero"></path>
                <path d="M342.127497,212 C343.74553,239.864191 341.196918,338.566104 340.583239,373.064453 C339.792946,417.461361 333,583.078172 333,583.078172 L333.089425,583.078172 C333.234741,586.91814 340.525616,590 349.471468,590 C358.415643,590 365.703836,586.917355 365.849095,583.078172 L366,583.078172 C366,583.078172 359.209234,417.461361 358.418997,373.064453 C357.805318,338.566104 355.25665,239.864191 356.874739,212 L342.127497,212 Z" id="path4410-6-4-5-6-4" fill="#3A4E66" fill-rule="nonzero"></path>
                <g id="g4724-8-5-9-9-0" transform="translate(156.000000, 137.000000)" fill-rule="nonzero">
                    <g id="Group-7" transform="translate(99.827617, 110.725715) rotate(-30.000000) translate(-99.827617, -110.725715) translate(36.931689, 20.151944)">
                        <path d="M125.09538,162.433506 C125.09538,162.433506 97.8009925,137.902421 95.0414697,135.026518 C94.0221778,133.7506 90.3742202,136.994077 91.7812212,138.755408 C97.6343775,146.08251 122.929538,180.37138 122.929538,180.37138 L125.09538,162.433506 Z" id="path4431-9-2-0-9-1-6-2" fill="#3A4E66"></path>
                        <path d="M2.11611937,7.10542736e-14 C2.11611937,7.10542736e-14 85.9596881,19.8816784 111.468247,69.4036206 C136.47991,117.960985 102.821074,148.18147 102.821074,148.18147 C102.821074,148.18147 62.1043003,168.016573 26.1301972,126.836943 C-10.5583367,84.8392622 2.11611937,7.10542736e-14 2.11611937,7.10542736e-14 Z" id="path834-1-3-2-4-3-9-2-0-7-0" fill="#327B03"></path>
                        <path d="M101.529849,148.97082 C101.529849,148.97082 61.3929769,168.820574 25.9304712,127.610521 C-10.2355615,85.5818456 2.25835157,0.680023196 2.25835157,0.680023196 L101.529849,148.97082 Z" id="path834-1-3-2-4-3-1-3-4-1-0-3" fill="#378703"></path>
                    </g>
                </g>
                <g id="Group-6" transform="translate(348.000000, 139.000000)" fill-rule="nonzero">
                    <path d="M9.66430033,147.703658 C9.66430033,147.703658 36.0544082,122.910234 38.7220096,120.003027 C39.7071374,118.713043 43.241716,121.999408 41.8820322,123.780185 C36.2250937,131.188252 11.7815808,165.858367 11.7815808,165.858367 L9.66430033,147.703658 Z" id="path4431-9-2-4-7-5-5-7-7" fill="#3A4E66" transform="translate(25.926821, 142.784340) rotate(30.000000) translate(-25.926821, -142.784340) "></path>
                    <path d="M164.333289,20.0542227 C164.333289,20.0542227 81.4500983,39.8485809 56.2840645,89.364413 C31.6084721,137.915769 64.9262745,168.189225 64.9262745,168.189225 C64.9262745,168.189225 105.211088,188.080575 140.735003,146.923022 C176.964685,104.947889 164.333289,20.0542227 164.333289,20.0542227 L164.333289,20.0542227 Z" id="path834-1-3-2-4-3-8-3-2-7-2-6" fill="#378703" transform="translate(106.823956, 96.524391) rotate(30.000000) translate(-106.823956, -96.524391) "></path>
                    <path d="M64.1040668,172.723748 C64.1040668,172.723748 104.233338,192.614917 139.619829,151.457203 C175.709356,109.481907 163.126377,24.5882972 163.126377,24.5882972 L64.1040668,172.723748 Z" id="path834-1-3-2-4-3-8-2-2-1-1-2-2" fill="#327B03" transform="translate(114.677139, 101.058636) rotate(30.000000) translate(-114.677139, -101.058636) "></path>
                </g>
                <g id="g4724-8-5-9-9-0" transform="translate(134.000000, 248.000000)" fill-rule="nonzero">
                    <g id="Group-7" transform="translate(110.309516, 122.249205) rotate(-30.000000) translate(-110.309516, -122.249205) translate(40.809516, 22.249205)">
                        <path d="M138.230395,179.33835 C138.230395,179.33835 108.070097,152.254257 105.020824,149.079052 C103.894507,147.670346 99.8635134,151.251379 101.418249,153.196016 C107.885987,161.285667 135.837139,199.143062 135.837139,199.143062 L138.230395,179.33835 Z" id="path4431-9-2-0-9-1-6-2" fill="#3A4E66"></path>
                        <path d="M2.3383119,7.10542736e-14 C2.3383119,7.10542736e-14 94.9854553,21.9508123 123.172413,76.6266218 C150.8103,130.237468 113.617287,163.603071 113.617287,163.603071 C113.617287,163.603071 68.6252519,185.502461 28.8738679,140.037168 C-11.6669621,93.6686877 2.3383119,7.10542736e-14 2.3383119,7.10542736e-14 Z" id="path834-1-3-2-4-3-9-2-0-7-0" fill="#327B03"></path>
                        <path d="M112.190484,164.474571 C112.190484,164.474571 67.8392395,186.390136 28.6531707,140.891254 C-11.3102955,94.4885536 2.49547849,0.750794841 2.49547849,0.750794841 L112.190484,164.474571 Z" id="path834-1-3-2-4-3-1-3-4-1-0-3" fill="#378703"></path>
                    </g>
                </g>
                <g id="Group-6" transform="translate(455.000000, 368.500000) rotate(30.000000) translate(-455.000000, -368.500000) translate(387.000000, 269.000000)" fill-rule="nonzero">
                    <path d="M9.09494702e-12,178.95321 C9.09494702e-12,178.95321 29.2155659,151.538136 32.1692902,148.324069 C33.2603598,146.898183 37.1648654,150.522997 35.6589592,152.491384 C29.3936662,160.67991 2.31804333,199 2.31804333,199 L9.09494702e-12,178.95321 Z" id="path4431-9-2-4-7-5-5-7-7" fill="#3A4E66"></path>
                    <path d="M133.686115,-5.22959454e-12 C133.686115,-5.22959454e-12 42.0037689,21.9669594 14.1100365,76.6831436 C-13.240097,130.333559 23.5656339,163.723776 23.5656339,163.723776 C23.5656339,163.723776 68.0892373,185.639341 107.426538,140.140459 C147.545367,93.7377587 133.686115,-5.22959454e-12 133.686115,-5.22959454e-12 L133.686115,-5.22959454e-12 Z" id="path834-1-3-2-4-3-8-3-2-7-2-6" fill="#378703"></path>
                    <path d="M24,163.723776 C24,163.723776 68.351596,185.639341 107.536925,140.140459 C147.500764,93.7377587 133.695054,-4.54747351e-12 133.695054,-4.54747351e-12 L24,163.723776 Z" id="path834-1-3-2-4-3-8-2-2-1-1-2-2" fill="#327B03"></path>
                </g>
                <g id="g4724-8-5-9-9-0" transform="translate(185.000000, 398.000000)" fill-rule="nonzero">
                    <g id="Group-7" transform="translate(85.352612, 91.185883) rotate(-30.000000) translate(-85.352612, -91.185883) translate(31.576594, 16.595719)">
                        <path d="M106.95655,133.76877 C106.95655,133.76877 83.6198486,113.5667 81.2604566,111.198309 C80.388962,110.147553 77.2699583,112.818652 78.4729441,114.26916 C83.4773928,120.303243 105.104755,148.541137 105.104755,148.541137 L106.95655,133.76877 Z" id="path4431-9-2-0-9-1-6-2" fill="#3A4E66"></path>
                        <path d="M1.80928206,7.10542736e-14 C1.80928206,7.10542736e-14 73.4955333,16.3731469 95.3053516,57.1559228 C116.690323,97.1443408 87.9120181,122.031799 87.9120181,122.031799 C87.9120181,122.031799 53.0991768,138.36659 22.3413186,104.453953 C-9.02737789,69.8676277 1.80928206,7.10542736e-14 1.80928206,7.10542736e-14 Z" id="path834-1-3-2-4-3-9-2-0-7-0" fill="#327B03"></path>
                        <path d="M86.8080212,122.681852 C86.8080212,122.681852 52.4909953,139.028708 22.1705529,105.091017 C-8.7514051,70.479167 1.93089059,0.560019103 1.93089059,0.560019103 L86.8080212,122.681852 Z" id="path834-1-3-2-4-3-1-3-4-1-0-3" fill="#378703"></path>
                    </g>
                </g>
                <g id="Group-6" transform="translate(349.000000, 399.000000)" fill-rule="nonzero">
                    <path d="M8.33909304,122.01952 C8.33909304,122.01952 31.1191662,100.993983 33.4277627,98.534877 C34.283501,97.4466512 37.2371977,100.129943 36.0560939,101.632198 C31.1421457,107.881615 9.86987806,137.099256 9.86987806,137.099256 L8.33909304,122.01952 Z" id="path4431-9-2-4-7-5-5-7-7" fill="#3A4E66" transform="translate(22.335084, 117.690567) rotate(30.000000) translate(-22.335084, -117.690567) "></path>
                    <path d="M141.741216,15.1214451 C141.741216,15.1214451 71.0518743,32.8185897 48.9471441,74.4036026 C27.2731886,115.178613 55.1258404,139.885495 55.1258404,139.885495 C55.1258404,139.885495 89.048992,155.848233 119.828111,121.067528 C151.218728,85.5959148 141.741216,15.1214451 141.741216,15.1214451 L141.741216,15.1214451 Z" id="path834-1-3-2-4-3-8-3-2-7-2-6" fill="#378703" transform="translate(91.887854, 79.331655) rotate(30.000000) translate(-91.887854, -79.331655) "></path>
                    <path d="M54.4712255,143.572507 C54.4712255,143.572507 88.2622683,159.537387 118.924667,124.758573 C150.196245,89.2888896 140.759856,18.8137534 140.759856,18.8137534 L54.4712255,143.572507 Z" id="path834-1-3-2-4-3-8-2-2-1-1-2-2" fill="#327B03" transform="translate(98.283890, 83.021919) rotate(30.000000) translate(-98.283890, -83.021919) "></path>
                </g>
                <g id="Group-8" transform="translate(344.324374, 129.500000) rotate(-35.000000) translate(-344.324374, -129.500000) translate(278.324374, 45.000000)" fill-rule="nonzero">
                    <path d="M129.686115,0 C129.686115,0 38.0037689,21.9669594 10.1100365,76.6831436 C-17.240097,130.333559 19.5656339,163.723776 19.5656339,163.723776 C19.5656339,163.723776 64.0892373,185.639341 103.426538,140.140459 C143.545367,93.7377587 129.686115,0 129.686115,0 L129.686115,0 Z" id="path834-1-3-2-4-3-8-3-2-7-2-6-copy" fill="#378703"></path>
                    <path d="M20,163.723776 C20,163.723776 64.351596,185.639341 103.536925,140.140459 C143.500764,93.7377587 129.695054,0 129.695054,0 L20,163.723776 Z" id="path834-1-3-2-4-3-8-2-2-1-1-2-2-copy" fill="#327B03"></path>
                </g>
                <path d="M344.623985,589.85485 C344.623985,589.85485 345.493828,507.873811 345.319623,489.283074 C345.148371,470.692393 346.178247,362.153317 345.904243,354.184231 C345.626696,346.215144 346.634132,314.356337 345.242855,313.016706 C343.852168,311.677074 343.796068,391.344759 343.767723,394.332119 C343.767723,397.319367 341.550301,533.757283 341.471761,542.055413 C341.389087,550.353375 336.9507,587.762067 340.169062,589.060645 C343.386834,590.359167 344.952907,589.970918 344.625166,589.85485 L344.623985,589.85485 Z" id="path4909-2-8-2-3-1-3" fill="#23363D" fill-rule="nonzero" opacity="0.406"></path>
                <line x1="325" y1="192" x2="236" y2="62" id="path4794-1-0-6-3-7-1" stroke-opacity="0" stroke="#C00000" stroke-width="0.19785383"></line>
                <circle id="path6911-6-6-7" stroke="#838383" stroke-width="2" stroke-linecap="round" stroke-linejoin="round" cx="349.5" cy="658.5" r="20.5"></circle>
                <polygon id="path6943-2-2-2" stroke="#A5A5A4" stroke-width="0.26458332" fill="#A5A5A4" fill-rule="nonzero" points="363 654.315703 373.624807 653 378 663 371.437541 661.68413 369.249614 656.684102 364.562238 661.157893"></polygon>
                <polyline id="path6858-4-3-1-8-5-2" stroke="#838383" stroke-width="2" stroke-linecap="round" stroke-linejoin="round" points="364 667.323133 369.09528 659 372 669"></polyline>
                <polygon id="path6943-8-1-1-7" stroke="#A5A5A4" stroke-width="0.26458332" fill="#A5A5A4" fill-rule="nonzero" points="336 665.68429 325.375193 667 321 657 327.562459 658.315877 329.749724 663.315877 334.4371 658.842117"></polygon>
                <polyline id="path6858-4-3-1-2-1-2-6" stroke="#838383" stroke-width="2" stroke-linecap="round" stroke-linejoin="round" points="325 654.676856 330.095067 663 333 653"></polyline>
                <g id="g5569-9-3-9-2-4" transform="translate(70.000000, 650.000000)">
                    <path d="M116.808387,14.4196205 L166.767972,83.4115342 C167.104802,83.8763474 166.359413,84.3082484 165.108108,84.4753512 L22.4581571,103.523111 C21.2071037,103.690172 19.6528193,103.477284 19.5831882,102.908901 L8.86213263,15.5446793 C8.79250149,14.9763381 9.25978513,14.4891112 10.5220382,14.4808623 L113.933418,13.805141 C115.195672,13.7971199 116.471809,13.9550155 116.808387,14.4196205 Z" id="rect5400-2-4-6-5-2" fill="#EDEDED" fill-rule="nonzero"></path>
                    <path d="M118.808605,12.4436331 L168.768189,81.4355468 C169.1046,81.9003601 168.359211,82.332261 167.108284,82.4993638 L24.4583324,101.547082 C23.2072791,101.714143 21.6530366,101.501255 21.5833635,100.932914 L10.8623499,13.5686919 C10.7927188,13.0003508 11.2600024,12.5131239 12.5222136,12.504875 L115.933636,11.8291529 C117.195847,11.8211325 118.472026,11.9786116 118.808605,12.4436331 Z" id="rect5400-3-06-3-4-3-5" fill="#FCFCFC" fill-rule="nonzero"></path>
                    <path d="M108.279202,7.16837588 L158.238787,76.1602896 C158.575198,76.6251029 157.829809,77.0570454 156.578881,77.2241066 L13.9289303,96.2718666 C12.6778769,96.4389278 11.1236345,96.2260394 11.0539614,95.6576566 L0.332947752,8.29343468 C0.263316616,7.72509355 0.730600259,7.23790831 1.9928114,7.22961774 L105.404234,6.55389644 C106.666445,6.54587528 107.942624,6.70377096 108.279202,7.16837588 Z" id="rect5400-8-0-0-6-4-0" fill="#EDEDED" fill-rule="nonzero"></path>
                    <path d="M109.158275,5.74914784 L159.117859,74.7410616 C159.45427,75.2058748 158.708881,75.6377757 157.457954,75.8048785 L14.8080024,94.8525969 C13.556949,95.0196581 12.0027066,94.8067697 11.9330335,94.2384286 L1.21201986,6.87420664 C1.14238873,6.30586551 1.60967237,5.8186386 2.87188351,5.8103897 L106.283306,5.13466765 C107.545517,5.12664724 108.821696,5.28412631 109.158275,5.74914784 Z" id="rect5400-3-0-41-7-0-5-1" fill="#F8F8F8" fill-rule="nonzero"></path>
                    <path d="M112.763615,2.99280585 L162.7232,71.9847196 C163.059611,72.4495328 162.314222,72.8814754 161.063294,73.0485365 L18.4133432,92.0962966 C17.1622898,92.2633577 15.6080473,92.0504694 15.5383743,91.4820866 L4.81736065,4.11786465 C4.74772951,3.54952352 5.21501316,3.06233827 6.4772243,3.05404771 L109.888646,2.37832641 C111.150858,2.37030525 112.427037,2.52820093 112.763615,2.99280585 Z" id="rect5400-8-9-4-7-0-8-7" fill="#EDEDED" fill-rule="nonzero"></path>
                    <path d="M115.604608,0.738480465 L165.564192,69.7303942 C165.900603,70.1952074 165.155214,70.6271084 163.904287,70.7942112 L21.2543354,89.8419296 C20.0032821,90.0089907 18.4490396,89.7961023 18.3793665,89.2277612 L7.65835292,1.86353927 C7.58872178,1.29519814 8.05600542,0.807971229 9.31821656,0.799722326 L112.729639,0.124000277 C113.99185,0.115979867 115.268029,0.273458937 115.604608,0.738480465 Z" id="rect5400-3-0-4-1-0-9-6-5" fill="#FCFCFC" fill-rule="nonzero"></path>
                    <line x1="20.7289559" y1="16.2579595" x2="108.722912" y2="11.927535" id="path5454-6-4-1-1-8" stroke="#445B77" stroke-width="0.5"></line>
                    <line x1="22.3144485" y1="23.1472105" x2="115.064841" y2="20.3914934" id="path5454-8-03-2-7-3-9" stroke="#445B77" stroke-width="0.5"></line>
                    <line x1="26.6744901" y1="33.3827251" x2="124.181318" y2="29.0523007" id="path5454-8-2-4-1-8-7-6" stroke="#445B77" stroke-width="0.5"></line>
                    <line x1="26.278138" y1="43.2245421" x2="130.919598" y2="36.9257542" id="path5454-8-7-0-1-8-4-2" stroke="#445B77" stroke-width="0.5"></line>
                    <line x1="31.0345737" y1="53.460015" x2="132.108697" y2="44.7992078" id="path5454-8-9-8-7-4-3-1" stroke="#445B77" stroke-width="0.5"></line>
                    <line x1="29.4490811" y1="64.4828833" x2="136.468738" y2="55.0347224" id="path5454-8-97-3-9-3-7-2" stroke="#445B77" stroke-width="0.5"></line>
                    <line x1="32.6200243" y1="72.7500346" x2="143.207019" y2="62.5145199" id="path5454-8-0-8-8-0-5-6" stroke="#445B77" stroke-width="0.5"></line>
                </g>
            </g>
        </g>
    </g>
</svg>