<?xml version="1.0" encoding="UTF-8"?>
<svg width="24px" height="24px" viewBox="0 0 24 24" version="1.1" xmlns="http://www.w3.org/2000/svg" xmlns:xlink="http://www.w3.org/1999/xlink">
    <!-- Generator: Sketch 62 (91390) - https://sketch.com -->
    <title>Icons / Apuraha</title>
    <desc>Created with Sketch.</desc>
    <g id="Icons-/-Apuraha" stroke="none" stroke-width="1" fill="none" fill-rule="evenodd">
        <g id="money-bag" transform="translate(3.000000, 1.000000)" fill="#378703">
            <path d="M11.4662835,0.997574083 C13.6611355,0.765611285 14.3081153,2.73396025 14.1486036,3.37004685 C14.0422624,3.79410458 13.4927279,4.8374223 12.5,6.5 C14.1349025,8.02765144 15.3424928,9.52151189 16.1227709,10.9815814 C17.293188,13.1716856 18.1850265,16.4725802 17,18.7370891 C15.8966994,20.8454251 13.8107506,20.9908276 12.540873,21.0008553 L5.87381726,21.0015981 C5.65827978,21.0015981 1.13030498,21.8016261 0.106873416,17.2731783 C-0.309626284,15.4302635 0.555636131,12.2229672 2.04720449,9.82367681 C2.58150687,8.96421466 3.55977829,7.9007375 4.98201874,6.63324533 C4.0456823,5.3331885 3.48144873,4.40741762 3.28931803,3.8559327 C3.00112199,3.02870532 3.78115311,2 4.98201874,1.4598581 C6.18288436,0.919716192 8.12779317,1.45781 9,1.67578569 C9.87220683,1.89376138 9.27143151,1.22953688 11.4662835,0.997574083 Z M10.0791389,8.34974293 L7.40324568,8.34974293 C6.24686316,9.23002524 5.32488366,10.1134443 4.63730721,11 C3.60594252,12.3298336 3.06157361,13.997596 2.85726666,15.4612724 C2.65295971,16.9249489 3.06841345,18.1598355 4.63730721,18.2690899 C6.20620096,18.3783442 11.369083,18.3957523 13.3209597,18.2690899 C15.2728364,18.1424274 14.8381143,14.5442127 13.6016632,12.2941947 C12.7773625,10.7941828 11.6031877,9.47936549 10.0791389,8.34974293 L10.0791389,8.34974293 Z M6.54462923,3.96505527 L7.45803313,5.69106903 L9.77741301,5.69106903 L10.6488008,4.14507651 L10.4140442,4.22942432 C9.71962371,4.46089261 9.11384732,4.49818477 8.596715,4.34130079 C8.02212353,4.16698526 7.33809494,4.04157008 6.54462923,3.96505527 L6.54462923,3.96505527 Z" id="Combined-Shape"></path>
        </g>
    </g>
</svg>