<?xml version="1.0" encoding="UTF-8"?>
<svg width="27px" height="27px" viewBox="0 0 27 27" version="1.1" xmlns="http://www.w3.org/2000/svg" xmlns:xlink="http://www.w3.org/1999/xlink">
    <!-- Generator: sketchtool 55.2 (78181) - https://sketchapp.com -->
    <title>445D75DA-7C77-4F2A-A488-BAD277BD85A7</title>
    <desc>Created with sketchtool.</desc>
    <g id="🖥-Oppija---Etusivu" stroke="none" stroke-width="1" fill="none" fill-rule="evenodd">
        <g id="Etusivu" transform="translate(-112.000000, -376.000000)">
            <g id="Banner-/-info" transform="translate(88.000000, 354.000000)">
                <g id="Icons-/-info">
                    <g transform="translate(22.000000, 20.000000)">
                        <polygon id="Path" points="0 0 31 0 31 31 0 31"></polygon>
                        <path d="M15.5,2.58333333 C8.37,2.58333333 2.58333333,8.37 2.58333333,15.5 C2.58333333,22.63 8.37,28.4166667 15.5,28.4166667 C22.63,28.4166667 28.4166667,22.63 28.4166667,15.5 C28.4166667,8.37 22.63,2.58333333 15.5,2.58333333 Z M16.7916667,21.9583333 L14.2083333,21.9583333 L14.2083333,14.2083333 L16.7916667,14.2083333 L16.7916667,21.9583333 Z M16.7916667,11.625 L14.2083333,11.625 L14.2083333,9.04166667 L16.7916667,9.04166667 L16.7916667,11.625 Z" id="Shape" fill="#378703" fill-rule="nonzero"></path>
                    </g>
                </g>
            </g>
        </g>
    </g>
</svg>