<?xml version="1.0" encoding="UTF-8"?>
<svg width="24px" height="24px" viewBox="0 0 24 24" version="1.1" xmlns="http://www.w3.org/2000/svg" xmlns:xlink="http://www.w3.org/1999/xlink">
    <!-- Generator: sketchtool 60 (101010) - https://sketch.com -->
    <title>F9E35BC1-D314-4D35-A7E6-D664971D5886@1x</title>
    <desc>Created with sketchtool.</desc>
    <g id="Asset-Artboard-Page" stroke="none" stroke-width="1" fill="none" fill-rule="evenodd">
        <g id="Icons-/-Koulutusaste">
            <g id="account_balance-24px">
                <polygon id="Path" points="0 0 24 0 24 24 0 24"></polygon>
                <path d="M7,11 L5,11 L5,18 L7,18 L7,11 Z M13,11 L11,11 L11,18 L13,18 L13,11 Z M21.5,20 L2.5,20 L2.5,22 L21.5,22 L21.5,20 Z M19,11 L17,11 L17,18 L19,18 L19,11 Z M12,4.26 L17.21,7 L6.79,7 L12,4.26 M12,2 L2.5,7 L2.5,9 L21.5,9 L21.5,7 L12,2 Z" id="Shape" fill="#378703"></path>
            </g>
        </g>
    </g>
</svg>