<?xml version="1.0" encoding="UTF-8"?>
<svg width="24px" height="24px" viewBox="0 0 24 24" version="1.1" xmlns="http://www.w3.org/2000/svg" xmlns:xlink="http://www.w3.org/1999/xlink">
    <!-- Generator: sketchtool 60 (101010) - https://sketch.com -->
    <title>4677FDEE-6096-42F4-A75E-37D125AB5F42@1x</title>
    <desc>Created with sketchtool.</desc>
    <g id="Asset-Artboard-Page" stroke="none" stroke-width="1" fill="none" fill-rule="evenodd">
        <g id="Icons-/-Koulutustyyppi">
            <g id="extension-24px">
                <polygon id="Path" points="0 0 24 0 24 24 0 24"></polygon>
                <path d="M10.7179487,4.05128205 C11.0051282,4.05128205 11.2307692,4.27692308 11.2307692,4.56410256 L11.2307692,6.61538462 L17.3846154,6.61538462 L17.3846154,12.7692308 L19.4358974,12.7692308 C19.7230769,12.7692308 19.9487179,12.9948718 19.9487179,13.2820513 C19.9487179,13.5692308 19.7230769,13.7948718 19.4358974,13.7948718 L17.3846154,13.7948718 L17.3846154,19.9487179 L15.2102564,19.9487179 C14.5128205,18.1538462 12.7589744,16.8717949 10.7179487,16.8717949 C8.67692308,16.8717949 6.92307692,18.1538462 6.22564103,19.9487179 L4.05128205,19.9487179 L4.05128205,17.774359 C5.84615385,17.0769231 7.12820513,15.3230769 7.12820513,13.2820513 C7.12820513,11.2410256 5.85641026,9.48717949 4.06153846,8.78974359 L4.05128205,6.61538462 L10.2051282,6.61538462 L10.2051282,4.56410256 C10.2051282,4.27692308 10.4307692,4.05128205 10.7179487,4.05128205 M10.7179487,2 C9.3025641,2 8.15384615,3.14871795 8.15384615,4.56410256 L4.05128205,4.56410256 C2.92307692,4.56410256 2.01025641,5.48717949 2.01025641,6.61538462 L2.01025641,10.5128205 L2.30769231,10.5128205 C3.83589744,10.5128205 5.07692308,11.7538462 5.07692308,13.2820513 C5.07692308,14.8102564 3.83589744,16.0512821 2.30769231,16.0512821 L2,16.0512821 L2,19.9487179 C2,21.0769231 2.92307692,22 4.05128205,22 L7.94871795,22 L7.94871795,21.6923077 C7.94871795,20.1641026 9.18974359,18.9230769 10.7179487,18.9230769 C12.2461538,18.9230769 13.4871795,20.1641026 13.4871795,21.6923077 L13.4871795,22 L17.3846154,22 C18.5128205,22 19.4358974,21.0769231 19.4358974,19.9487179 L19.4358974,15.8461538 C20.8512821,15.8461538 22,14.6974359 22,13.2820513 C22,11.8666667 20.8512821,10.7179487 19.4358974,10.7179487 L19.4358974,6.61538462 C19.4358974,5.48717949 18.5128205,4.56410256 17.3846154,4.56410256 L13.2820513,4.56410256 C13.2820513,3.14871795 12.1333333,2 10.7179487,2 Z" id="Shape" fill="#378703"></path>
            </g>
        </g>
    </g>
</svg>