<?xml version="1.0" encoding="UTF-8"?>
<svg width="24px" height="24px" viewBox="0 0 24 24" version="1.1" xmlns="http://www.w3.org/2000/svg" xmlns:xlink="http://www.w3.org/1999/xlink">
    <!-- Generator: sketchtool 60 (101010) - https://sketch.com -->
    <title>3BEA375A-12A9-4DA3-A219-1646388B054F@1x</title>
    <desc>Created with sketchtool.</desc>
    <g id="Asset-Artboard-Page" stroke="none" stroke-width="1" fill="none" fill-rule="evenodd">
        <g id="Icons-/-Koulutuksen-laajuus">
            <g id="24px-(7)">
                <polygon id="Path" points="0 0 24 0 24 24 0 24"></polygon>
                <path d="M16.24,7.76 C15.07,6.59 13.54,6 12,6 L12,12 L7.76,16.24 C10.1,18.58 13.9,18.58 16.25,16.24 C18.59,13.9 18.59,10.1 16.24,7.76 Z M12,2 C6.48,2 2,6.48 2,12 C2,17.52 6.48,22 12,22 C17.52,22 22,17.52 22,12 C22,6.48 17.52,2 12,2 Z M12,20 C7.58,20 4,16.42 4,12 C4,7.58 7.58,4 12,4 C16.42,4 20,7.58 20,12 C20,16.42 16.42,20 12,20 Z" id="Shape" fill="#378703"></path>
            </g>
        </g>
    </g>
</svg>