<?xml version="1.0" encoding="UTF-8"?>
<svg width="60px" height="60px" viewBox="0 0 60 60" version="1.1" xmlns="http://www.w3.org/2000/svg" xmlns:xlink="http://www.w3.org/1999/xlink">
    <!-- Generator: sketchtool 60 (101010) - https://sketch.com -->
    <title>2D9D4B7A-8D00-4DF6-9474-72B535524B1F@1x</title>
    <desc>Created with sketchtool.</desc>
    <g id="Asset-Artboard-Page" stroke="none" stroke-width="1" fill="none" fill-rule="evenodd">
        <g id="Icons-/-Koulutus-ikoni-/-Koulutusala-/-Historia-ja-kulttuuri-Icons-/-Koulutus-ikoni-/-Koulutusala-/-Opetus-kasvatus-psykologia">
            <circle id="path1019-5-2-2-4-9-7" fill="#378703" cx="29.5" cy="29.5" r="29.5"></circle>
            <g id="supervisor_account-24px" transform="translate(15.000000, 15.000000)">
                <polygon id="Path" points="0 0 30 0 30 30 0 30"></polygon>
                <path d="M11.25,15 C13.6625,15 15.625,13.0375 15.625,10.625 C15.625,8.2125 13.6625,6.25 11.25,6.25 C8.8375,6.25 6.875,8.2125 6.875,10.625 C6.875,13.0375 8.8375,15 11.25,15 Z M11.25,8.75 C12.2875,8.75 13.125,9.5875 13.125,10.625 C13.125,11.6625 12.2875,12.5 11.25,12.5 C10.2125,12.5 9.375,11.6625 9.375,10.625 C9.375,9.5875 10.2125,8.75 11.25,8.75 Z M11.3125,21.25 L5.9625,21.25 C7.2,20.625 9.3375,20 11.25,20 C11.3875,20 11.5375,20.0125 11.675,20.0125 C12.1,19.1 12.8375,18.35 13.725,17.75 C12.8125,17.5875 11.95,17.5 11.25,17.5 C8.325,17.5 2.5,18.9625 2.5,21.875 L2.5,23.75 L11.25,23.75 L11.25,21.875 C11.25,21.6625 11.275,21.45 11.3125,21.25 Z M20.625,18.125 C18.325,18.125 13.75,19.3875 13.75,21.875 L13.75,23.75 L27.5,23.75 L27.5,21.875 C27.5,19.3875 22.925,18.125 20.625,18.125 Z M22.1375,15.85 C23.0875,15.3125 23.75,14.3 23.75,13.125 C23.75,11.4 22.35,10 20.625,10 C18.9,10 17.5,11.4 17.5,13.125 C17.5,14.3 18.1625,15.3125 19.1125,15.85 C19.5625,16.1 20.075,16.25 20.625,16.25 C21.175,16.25 21.6875,16.1 22.1375,15.85 Z" id="Shape" fill="#FFFFFF" fill-rule="nonzero"></path>
            </g>
        </g>
    </g>
</svg>