<svg height="30" viewBox="0 0 176 30" width="176" xmlns="http://www.w3.org/2000/svg" xmlns:xlink="http://www.w3.org/1999/xlink"><linearGradient id="a" x1="21.415226%" x2="57.018781%" y1="55.868403%" y2="37.021056%"><stop offset="0" stop-color="#64bc46"/><stop offset=".39748996" stop-color="#2874ba"/><stop offset="1" stop-color="#e3158f"/></linearGradient><linearGradient id="b" x1="15.305649%" x2="90.106605%" y1="47.921852%" y2="55.788273%"><stop offset="0" stop-color="#3070b8"/><stop offset="1" stop-color="#e3158f"/></linearGradient><linearGradient id="c" x1="29.531226%" x2="76.609524%" y1="82.130558%" y2="40.027644%"><stop offset="0" stop-color="#a9d04a"/><stop offset="1" stop-color="#64bc46"/></linearGradient><linearGradient id="d" x1="12.479706%" x2="78.490975%" y1="65.761288%" y2="25.146949%"><stop offset="0" stop-color="#2b72b9"/><stop offset="1" stop-color="#db1991"/></linearGradient><g fill="none"><g fill="#272627" transform="translate(60.063492 .280456)"><path d="m11.6347552 6.32317714c0 1.86328127-.4619707 3.29539048-1.385912 4.29632766-.92394229 1.0009371-2.24825895 1.5014057-3.97294999 1.5014057-1.72469105 0-3.04900771-.5004686-3.97294997-1.5014057-.92394134-1.00093718-1.385912-2.43817739-1.385912-4.31172067 0-1.8735526.46197066-3.3030963 1.385912-4.28863111.92907513-.99067514 2.25852465-1.4860127 3.98834857-1.4860127 1.72982485 0 3.05157507.49790307 3.96525069 1.4937092.9188084.99580614 1.3782127 2.42791535 1.3782127 4.29632762zm-8.2153825 0c0 1.25758984.23868533 2.20463281.716056 2.84112889.47736973.63648677 1.1908579.95473017 2.14046451.95473017 1.904347 0 2.8565205-1.26528636 2.8565205-3.79585906 0-2.5357037-.94704063-3.80355555-2.8411219-3.80355555-.9496066 0-1.66566121.32081354-2.14816381.96244063-.48250353.63648677-.7237553 1.58352508-.7237553 2.84111492z"/><path d="m16.369957 6.0074946h.7853511c.7340205 0 1.2832527-.14372402 1.6476966-.43117206.3644439-.29257905.5466658-.71604995.5466658-1.2704127 0-.55950307-.1539907-.97271196-.4619721-1.23962667-.3028476-.2669147-.7802173-.40037206-1.4321092-.40037206h-1.0856322zm5.3896605-1.78628825c0 1.21139217-.3798424 2.1379018-1.1395273 2.77952889-.754553.64162709-1.8299186.96244063-3.2260968.96244063h-1.0240364v4.00374853h-2.3868492v-11.25669456h3.595673c1.365381 0 2.4022492.29514921 3.1106045.88544762.7134881.58516741 1.0702322 1.4603437 1.0702322 2.62552889z"/><path d="m23.900082 11.9669244v-11.25669456h2.3868506v11.25669456z"/><path d="m39.1220329 11.9669244h-3.033617l-4.8968927-8.51566218h-.0692965c.0975272 1.50397122.1462909 2.57677037.1462909 3.21839746v5.29726472h-2.1327652v-11.25669456h3.0105093l4.889192 8.4309727h.0539035c-.076993-1.46290455-.1154895-2.4972072-.1154895-3.10290794v-5.32806476h2.1481652z"/><path d="m46.2902726 11.9669244h-2.3868491v-9.27021329h-3.0567079v-1.98648127h8.500265v1.98648127h-3.056708z"/><path d="m61.3120305 6.32317714c0 1.86328127-.4619721 3.29539048-1.3859162 4.29632766-.9239441 1.0009371-2.2482603 1.5014057-3.9729486 1.5014057-1.724691 0-3.0490077-.5004686-3.97295-1.5014057-.9239413-1.00093718-1.385912-2.43817739-1.385912-4.31172067 0-1.8735526.4619707-3.3030963 1.385912-4.28863111.9290752-.99067514 2.2585228-1.4860127 3.988343-1.4860127 1.7298286 0 3.0515793.49790307 3.9652521 1.4937092.9188131.99580614 1.3782197 2.42791535 1.3782197 4.29632762zm-8.2153839 0c0 1.25758984.2386849 2.20463281.7160546 2.84112889.4773697.63648677 1.1908579.95473017 2.1404645.95473017 1.904348 0 2.8565219-1.26528636 2.8565219-3.79585906 0-2.5357037-.9470429-3.80355555-2.8411289-3.80355555-.9496028 0-1.6656556.32081354-2.1481582.96244063-.4825026.63648677-.7237539 1.58352508-.7237539 2.84111492z"/><path d="m66.0472267 6.0074946h.7853511c.7340224 0 1.2832542-.14372402 1.6476952-.43117206.3644411-.29257905.5466616-.71604995.5466616-1.2704127 0-.55950307-.1539907-.97271196-.4619721-1.23962667-.302841-.2669147-.7802108-.40037206-1.4321092-.40037206h-1.0856266zm5.3896647-1.78628825c0 1.21139217-.3798434 2.1379018-1.1395301 2.77952889-.7545558.64162709-1.8299205.96244063-3.226094.96244063h-1.0240406v4.00374853h-2.3868534v-11.25669456h3.59568c1.3653782 0 2.4022464.29514921 3.1106045.88544762.7134891.58516741 1.0702336 1.4603437 1.0702336 2.62552889z"/><path d="m83.7946057 6.32317714c0 1.86328127-.4619674 3.29539048-1.3859022 4.29632766-.9239441 1.0009371-2.2482603 1.5014057-3.9729486 1.5014057-1.7246975 0-3.0490137-.5004686-3.9729486-1.5014057-.9239441-1.00093718-1.3859161-2.43817739-1.3859161-4.31172067 0-1.8735526.461972-3.3030963 1.3859161-4.28863111.9290659-.99067514 2.2585131-1.4860127 3.9883416-1.4860127 1.7298286 0 3.0515793.49790307 3.9652521 1.4937092.9188038.99580614 1.3782057 2.42791535 1.3782057 4.29632762zm-8.2153727 0c0 1.25758984.2386849 2.20463281.7160546 2.84112889.4773698.63648677 1.1908589.95473017 2.1404673.95473017 1.9043386 0 2.856508-1.26528636 2.856508-3.79585906 0-2.5357037-.9470383-3.80355555-2.841115-3.80355555-.9496084 0-1.665663.32081354-2.1481638.96244063-.4825007.63648677-.7237511 1.58352508-.7237511 2.84111492z"/><path d="m86.1429625 11.9669244v-11.25669456h2.3868534v9.28562032h4.5658171v1.97107424z"/><path d="m104.098231 11.9669244h-2.710232l-2.9489082-4.74290662-1.0086337.72376508v4.01914154h-2.3868533v-11.25669456h2.3868533v5.15097524l.9393372-1.32431619 3.0490047-3.82665905h2.648632l-3.926755 4.98159619z"/><path d="m114.677368.71022984v7.28374603c0 .83154879-.187357 1.56043556-.562069 2.18666033-.369572.6262248-.905972 1.10616-1.609199 1.4398057-.703217.3336457-1.534762.5004686-2.494632.5004686-1.447512 0-2.571644-.3695767-3.372398-1.1087302-.800744-.7442844-1.201116-1.76061924-1.201116-3.04900443v-7.25294603h2.379143v6.89107048c0 .86747513.174524 1.50396656.523572 1.90947428.349039.40550773.926501.6082616 1.732385.6082616.78022 0 1.344854-.20275387 1.693902-.6082616.35417-.41063873.531255-1.05226116.531255-1.9248673v-6.87567746z"/></g><g fill="#272627" transform="translate(60.063492 16.645535)"><path d="m7.92357587 8.83662603c0 .93933714-.34647835 1.68362157-1.03943504 2.23285337-.6878229.5492317-1.6040654.8238476-2.7487275.8238476-1.3756458 0-2.43047898-.1514252-3.16449955-.4542756v-.7853371c.81101545.3439077 1.8453167.5158616 3.10290374.5158616.92394227 0 1.65539641-.2104551 2.19436242-.6313651.54409887-.4260411.81614831-.98296932.81614831-1.67078477 0-.42604106-.08982751-.7776546-.26948254-1.05484063-.17965595-.28231704-.47223779-.53896508-.87774552-.76994413-.40550772-.23098836-1.00093668-.47993989-1.78628686-.7468546-1.14979403-.39524572-1.94541087-.82128678-2.38685054-1.27812318-.43630586-.46196741-.65445879-1.07536465-.65445879-1.84019174 0-.8418108.32851285-1.5270654.98553854-2.05576381.66215856-.53382942 1.51167192-.80074413 2.54854006-.80074413 1.05739962 0 2.050637.2001837 2.97971213.60055111l-.28488254.6775581c-.934208-.3901054-1.82735166-.5851581-2.67943098-.5851581-.83154786 0-1.49370642.1924872-1.98647569.57746159-.49276833.38497439-.7391525.9085418-.7391525 1.57070222 0 .41576974.07442844.75711661.22328533 1.02404064.15399069.2669147.40294176.50816507.74685321.72375111.34391145.21045502.93420753.46453756 1.77088825.76224762.87774459.30285037 1.53733625.59799957 1.97877498.88544761.44143967.28231704.76225321.60569609.96244064.97013715.20532029.35931005.30798044.79561777.30798044 1.30892317z"/><path d="m13.2362406 11.739341h-.7930504v-10.51753656h-3.6572688v-.73915809h8.1075895v.73915809h-3.6572703z"/><path d="m26.8335844.48264635v7.28374603c0 1.29351619-.3747096 2.30472002-1.1241288 3.03361142-.7494192.7288821-1.7939866 1.0933232-3.1337023 1.0933232-1.3037847 0-2.3226874-.3644411-3.056708-1.0933232-.7288877-.7340224-1.0933315-1.7554929-1.0933315-3.06441142v-7.25294603h.7930504v7.28374603c0 1.08306116.3002811 1.92744212.9008434 2.53314282.6005623.6005605 1.4500757.9008407 2.5485401.9008407 1.0727991 0 1.9043465-.2951492 2.4946421-.8854476.5902966-.59542946.8854449-1.41927708.8854449-2.4715429v-7.36073905z"/><path d="m38.4367517 6.00319365c0 1.88895492-.4953352 3.31849863-1.4860057 4.28863115-.9906714.9650108-2.4458799 1.4475162-4.3656255 1.4475162h-2.6948296v-11.25669465h3.041308c1.7965539 0 3.1619345.46967323 4.0961415 1.40901968.9393409.93933714 1.4090113 2.30984635 1.4090113 4.11152762zm-.8546448.03086984c0-1.61175957-.410641-2.82314709-1.2319232-3.63416254-.8161483-.81614645-2.0172724-1.22421968-3.6033723-1.22421968h-2.0711708v9.87076443h1.8632827c3.3621224 0 5.0431836-1.67079406 5.0431836-5.01238221z"/><path d="m41.0391897 11.739341v-11.25669465h.7853497v11.25669465z"/><path d="m51.1640521 11.739341h-6.1519138v-11.25669465h6.1519138v.72375111h-5.3665627v4.25783111h5.0662815v.72376508h-5.0662815v4.82759615h5.3665627z"/><path d="m53.7279907 11.739341v-11.25669465h.7853511v11.25669465z"/><path d="m65.8855162 11.739341h-.7930476l-6.667774-9.99397846h-.0616c.0616466 1.19085884.0924698 2.08913862.0924698 2.69483936v7.2991391h-.7545511v-11.25669465h.7853511l6.6600775 9.97857145h.0462349c-.0461883-.92394415-.0692825-1.80168595-.0692825-2.63322542v-7.34534603h.7622476z"/><path d="m69.8507822 11.739341h-.7853511v-11.25669465h6.1673054v.72375111h-5.3819543v4.77370667h5.0816788v.73144762h-5.0816788z"/><path d="m86.4432241 6.09559365c0 1.78628825-.4465697 3.20043429-1.3397092 4.24243805-.8931395 1.0368635-2.1250603 1.5552953-3.6957625 1.5552953-1.5655712 0-2.7949266-.5184318-3.6880661-1.5552953-.8931487-1.04200376-1.3397231-2.4612808-1.3397231-4.25783107 0-1.79141925.4491399-3.20043428 1.3474197-4.22704507.9034108-1.03173249 2.1353316-1.54759874 3.6957625-1.54759874 1.5707022 0 2.8000576.51843641 3.688066 1.55530921.8880085 1.03173249 1.3320127 2.44330836 1.3320127 4.23472762zm-9.2086133 0c0 1.61176889.35931 2.85909206 1.0779302 3.74196952.7186201.87774643 1.7503572 1.31661973 3.0952114 1.31661973 1.3551162 0 2.3894142-.4363078 3.1028939-1.30892322.7186295-.87261545 1.0779442-2.12250412 1.0779442-3.74966603 0-1.6220309-.3593147-2.86421841-1.0779442-3.72656254-.7134797-.86748444-1.7426467-1.30122667-3.0875009-1.30122667-1.3397139 0-2.3740165.43630773-3.1029079 1.30892318-.7237512.87261545-1.0856267 2.11223746-1.0856267 3.71886603z"/></g><g transform="translate(.494783 .614982)"><g transform="translate(.325286 .989378)"><path d="m29.1021909 1.15901867c-1.7250068.05992381-2.4757473.87206044-2.9111378 1.39746095-.7328598.88410527-1.629781 2.27962044-2.9053647 4.09999263-3.5395388-2.24268838-5.6486697-3.12983174-5.6678062-3.13779504-.0041905 0-.0051683-.00433016-.0079619-.00433016-.037854-.01648254-.0705537-.02827175-.108268-.04475429-2.5596266-1.26360876-6.0001892-1.86592686-9.12392519-.9405426-.18491035.04330159-.36829117.09255365-.55075428.14508825-.70768762.22452432-1.37556572.51567302-1.99947035.8640287-4.36759365 2.43817549-6.56983556 7.68571469-4.99794743 12.63923609 1.79651162 5.6611643 7.57069028 8.079889 11.94050625 7.3713214.1310223-.0213575.2601588-.0464305.3897842-.0707353 1.9717629-.3265917 3.9627936-1.1353075 5.8966271-2.3921417 2.7872394-1.8114465 4.481062-3.9361324 5.1415914-4.862968.6710223-.7670233.9336241-1.0065719 1.4032382-1.5692551l.6070561.3630796 1.5217966.987895-2.3004708 3.213584c-1.2229332 1.7083468-2.5453525 3.2964912-2.9053619 5.1632492-.1631492.6782551.3022367 1.8735912.9268285 2.0276163.2996456.0738921 1.1764623.193019 2.0680405-.5716871 1.1094132-.9515593 1.9951751-2.3175484 4.2688996-5.6519257.4034744-.5917064.7382962-1.0338394 1.2242225-1.7165098l.2728517-.3457576c.0786412.0519619.1593386.1059073.2382034.1580829 1.3023469.9960469 2.2534383 1.352817 4.1238141 2.2116844 1.8378451.84392 4.4329357 1.5960798 7.0053559 1.1469879 3.9199935-.68439 7.141098-4.0818116 6.7151794-8.8951057-.425797-4.81332203-4.751349-7.85191174-9.4624654-7.17354209-4.6019502.66266933-7.1716871 3.54264673-9.2249785 6.31239919l-1.5087949-1.0701819s-.292864-.2417779-.4338163-.3573066c1.3168823-1.8430985 4.0673167-4.31797279 3.5449012-6.68486409-.4496087-2.03704774-1.9706161-2.65291644-3.1803814-2.61085943zm-17.674719 6.94399898c2.5592495-.02254476 4.9667046 1.25266883 6.8220128 2.21168725.0785016.0406476 1.1396056.726081 1.9669844 1.2581458-2.568998 3.6179049-5.7169424 6.2304796-8.9766719 6.0532643-2.95283301-.2791709-4.19093714-1.7492877-4.61321142-3.3839366-.42228965-1.6346489.10101841-3.5013999.96147543-4.61682361.72153295-.74053816 1.68825346-1.25667492 2.73429129-1.42849841.370649-.06088762.7395157-.09062603 1.1051194-.09383873zm29.0235049 1.58697857c1.8600895-.00694974 3.6167692 1.05068178 4.3757287 2.69318078.9484151 2.147214-.5168868 4.1350418-1.6724791 4.8622431-1.3795634.8681437-3.2308948.7823828-5.6851282-.5298215-1.3954845-.7461157-2.5954036-1.5506885-3.7405225-2.4130773l.0086604-.0086603c.0069841.0041904.0265396.0167758.0346273.0216507-.0125715-.0097777-.0196254-.0159238-.0317499-.0259809 1.6895162-2.0592852 3.3176782-3.4937048 4.8492526-4.2198151.6099601-.25683011 1.2415669-.37736357 1.8615981-.37971948z" fill="url(#a)"/><path d="m13.3943138 2.24227632c-7.19416485-.19858807-8.65440612 7.25440012-6.91116523 10.98078248 0 0-.33008241-4.95020255 4.71859913-5.16469067 2.3194774-.09854603 6.0352146 1.09057701 9.6429226 2.52207297l2.4412276-3.92386548s-6.5909416-4.2876673-9.8915841-4.4142993zm15.3435612 8.21328868-1.9958581 2.6714886c1.7501454.8046468 3.4153219 1.6790498 4.1615242 2.0150603 2.8213261 1.2704239 5.7748421 2.6396243 8.8106536 2.9696089 3.0358114.3299804 4.2898254-1.567815 4.2898254-1.567815s-1.9739211 2.5614286-6.0056145.4294889c-3.151301-1.6663959-4.2609614-2.679431-4.2609614-2.679431l-3.0569468-2.4109122z" fill="url(#b)"/><path d="m28.0758114 1.26827859c-.730243.21998315-1.5626554.72003153-2.3033721 1.79811268-.8678955 1.26318364-2.4867043 3.59038235-2.4867043 3.59038235l-3.0648887 4.92648348-.004324-.0100894s-4.4275956 7.7082098-9.8392557 8.8301412c-5.41165637 1.1219277-9.1730123-3.1341843-9.1730123-3.1341843s1.32762305 3.2694826 4.68467314 5.0304307c-.00073916-.0001146-.016594-.0022175-.016594-.0022175s3.73577013 2.253021 8.34290606.9860196c3.556555-.9780848 4.5265941-2.0420555 4.5265941-2.0420555s2.424608-3.2355443 3.5287333-5.7719087c1.5349925-3.5261499 2.283984-6.13654785 2.8700625-7.81857279 1.5782367-4.52949526 1.4382595-5.37683858 2.935182-6.38254182z" fill="url(#c)"/></g><path d="m38.9496674 9.08518417c-1.0751099.00168326-2.3143678.30591742-3.7073171 1.11451173-1.4358792.8335136-2.7441961 1.9217538-3.8430214 2.9833215l2.6660717 2.0958918s1.7414935-2.0272225 2.9149106-2.9738427c4.1052322-3.31178498 6.9442058-.5065182 6.9442058-.5065182s-1.7495239-2.71842055-4.9748496-2.71336413zm-10.8779705 7.91919833-.0029333.0036317s-3.6824145 4.8999993-4.1490757 5.7399886c-.4666612.8399879-.9333252 2.0066849-.9333252 2.0066849s2.020825-1.786928 4.2135391-3.5387342c1.2406645-.9911915 3.3838501-2.5700456 3.3838501-2.5700456z" fill="url(#d)"/></g></g></svg>