<svg height="29" viewBox="0 0 167 29" width="167" xmlns="http://www.w3.org/2000/svg" xmlns:xlink="http://www.w3.org/1999/xlink"><linearGradient id="a" x1="21.415226%" x2="57.018781%" y1="55.868403%" y2="37.021056%"><stop offset="0" stop-color="#64bc46"/><stop offset=".39748996" stop-color="#2874ba"/><stop offset="1" stop-color="#e3158f"/></linearGradient><linearGradient id="b" x1="15.305649%" x2="90.106605%" y1="47.921852%" y2="55.788273%"><stop offset="0" stop-color="#3070b8"/><stop offset="1" stop-color="#e3158f"/></linearGradient><linearGradient id="c" x1="29.531226%" x2="76.609524%" y1="82.130558%" y2="40.027644%"><stop offset="0" stop-color="#a9d04a"/><stop offset="1" stop-color="#64bc46"/></linearGradient><linearGradient id="d" x1="12.479706%" x2="78.490975%" y1="65.761288%" y2="25.146949%"><stop offset="0" stop-color="#2b72b9"/><stop offset="1" stop-color="#db1991"/></linearGradient><g fill="none" fill-rule="nonzero"><g fill="#2a2a2a" transform="translate(61)"><path d="m3.234375 11.7578125c1.32291667 0 2.35546875-.296875 3.09765625-.890625s1.11328125-1.40625 1.11328125-2.4375c0-.74479167-.19791667-1.37369792-.59375-1.88671875s-1.12760417-1.02473958-2.1953125-1.53515625c-.80729167-.38541667-1.31901042-.65234375-1.53515625-.80078125s-.37369792-.30208333-.47265625-.4609375-.1484375-.34505208-.1484375-.55859375c0-.34375.12239583-.62239583.3671875-.8359375s.59635417-.3203125 1.0546875-.3203125c.38541667 0 .77734375.04947917 1.17578125.1484375s.90234375.2734375 1.51171875.5234375l.78125-1.8828125c-.58854167-.25520833-1.15234375-.453125-1.69140625-.59375s-1.10546875-.2109375-1.69921875-.2109375c-1.20833333 0-2.15494792.2890625-2.83984375.8671875s-1.02734375 1.37239583-1.02734375 2.3828125c0 .53645833.10416667 1.00520833.3125 1.40625s.48697917.75260417.8359375 1.0546875.87239583.6171875 1.5703125.9453125c.74479167.35416667 1.23828125.61197917 1.48046875.7734375s.42578125.32942708.55078125.50390625.1875.37369792.1875.59765625c0 .40104167-.14192708.703125-.42578125.90625s-.69140625.3046875-1.22265625.3046875c-.44270833 0-.93098958-.0703125-1.46484375-.2109375s-1.18619792-.3828125-1.95703125-.7265625v2.25c.9375.4583333 2.015625.6875 3.234375.6875zm10.6875-.15625v-9.40625h3.1015625v-2.015625h-8.625v2.015625h3.1015625v9.40625zm9.421875.15625c.9739583 0 1.8177083-.1692708 2.53125-.5078125s1.2591146-.8255208 1.6367188-1.4609375c.3776041-.63541667.5664062-1.375.5664062-2.21875v-7.390625h-2.4140625v6.9765625c0 .88541667-.1783854 1.53515625-.5351563 1.94921875-.3567708.4140625-.9309895.62109375-1.7226562.62109375-.8177083 0-1.4036458-.20572917-1.7578125-.6171875s-.53125-1.05729167-.53125-1.9375v-6.9921875h-2.4140625v7.359375c0 1.30729167.40625 2.33723958 1.21875 3.0898437.8125.7526042 1.953125 1.1289063 3.421875 1.1289063zm10.765625-.15625c2.0208333 0 3.5664062-.5 4.6367188-1.5 1.0703124-1 1.6054687-2.44010417 1.6054687-4.3203125 0-1.765625-.515625-3.140625-1.546875-4.125s-2.4791667-1.4765625-4.34375-1.4765625h-3.5859375v11.421875zm.2265625-2h-1.0390625v-7.4375h1.2890625c2.1666667 0 3.25 1.2265625 3.25 3.6796875 0 2.50520833-1.1666667 3.7578125-3.5 3.7578125zm10.8046875 2v-11.421875h-2.421875v11.421875zm9.453125 0v-2h-4.15625v-2.9453125h3.8671875v-1.984375h-3.8671875v-2.5078125h4.15625v-1.984375h-6.578125v11.421875zm4.8046875 0v-11.421875h-2.421875v11.421875zm5.0390625 0-.0007573-5.52120536c-.0065636-.6625744-.0557903-1.70238095-.1476802-3.11941964h.0703125l4.96875 8.640625h3.078125v-11.421875h-2.1796875v5.40625c0 .61458333.0390625 1.6640625.1171875 3.1484375h-.0546875l-4.9609375-8.5546875h-3.0546875v11.421875zm13.2265625 0v-4.515625h3.875v-1.9765625h-3.875v-2.9453125h4.1640625v-1.984375h-6.546875v11.421875zm11.328125.15625c1.75 0 3.09375-.5078125 4.03125-1.5234375s1.40625-2.46875 1.40625-4.359375c0-1.89583333-.4648437-3.34895833-1.3945313-4.359375-.9296874-1.01041667-2.2721354-1.515625-4.0273437-1.515625s-3.1028646.50130208-4.0429687 1.50390625c-.9401042 1.00260417-1.4101563 2.45442708-1.4101563 4.35546875s.46875 3.359375 1.40625 4.375 2.28125 1.5234375 4.03125 1.5234375zm0-2.03125c-.9635417 0-1.6875-.32291667-2.171875-.96875s-.7265625-1.60677083-.7265625-2.8828125.2447917-2.23828125.734375-2.88671875 1.2161458-.97265625 2.1796875-.97265625c1.921875 0 2.8828125 1.28645833 2.8828125 3.859375 0 2.56770833-.9661458 3.8515625-2.8984375 3.8515625z"/><path d="m5.1015625 28.7578125c1.59375 0 2.84375-.5273437 3.75-1.5820313.90625-1.0546874 1.359375-2.4882812 1.359375-4.3007812 0-1.8177083-.45052083-3.2513021-1.3515625-4.3007812-.90104167-1.0494792-2.1484375-1.5742188-3.7421875-1.5742188-1.58333333 0-2.83203125.5221354-3.74609375 1.5664062-.9140625 1.0442709-1.37109375 2.4752605-1.37109375 4.2929688 0 1.8229167.453125 3.2617188 1.359375 4.3164062.90625 1.0546876 2.15364583 1.5820313 3.7421875 1.5820313zm0-.75c-1.36458333 0-2.41145833-.4466146-3.140625-1.3398437-.72916667-.8932292-1.09375-2.1575521-1.09375-3.7929688 0-1.6302083.36848958-2.8880208 1.10546875-3.7734375s1.78515625-1.328125 3.14453125-1.328125c1.36458333 0 2.41015625.4388021 3.13671875 1.3164063.7265625.8776041 1.08984375 2.1393229 1.08984375 3.7851562 0 1.6510417-.36328125 2.9192708-1.08984375 3.8046875s-1.77734375 1.328125-3.15234375 1.328125zm8.53125.59375v-4.71875h1.765625c1.375 0 2.4375-.2942708 3.1875-.8828125s1.125-1.4348958 1.125-2.5390625c0-2.1875-1.359375-3.28125-4.078125-3.28125h-2.796875v11.421875zm1.5703125-5.40625h-1.5703125v-5.296875h1.890625c1.1354167 0 1.9739583.2122396 2.515625.6367187.5416667.4244792.8125 1.076823.8125 1.9570313 0 .953125-.2864583 1.6419271-.859375 2.0664063-.5729167.4244791-1.5026042.6367187-2.7890625.6367187zm7.7890625 5.40625v-11.421875h-.796875v11.421875zm4 0v-7.40625c0-.6145833-.03125-1.5260417-.09375-2.734375h.0625l6.765625 10.140625h.8046875v-11.421875h-.7734375v7.453125c0 .84375.0234375 1.734375.0703125 2.671875h-.046875l-6.7578125-10.125h-.796875v11.421875zm13.75 0v-10.671875h3.7109375v-.75h-8.2265625v.75h3.7109375v10.671875zm9.8984375.15625c1.59375 0 2.84375-.5273437 3.75-1.5820313.90625-1.0546874 1.359375-2.4882812 1.359375-4.3007812 0-1.8177083-.4505208-3.2513021-1.3515625-4.3007812-.9010417-1.0494792-2.1484375-1.5742188-3.7421875-1.5742188-1.5833333 0-2.8320312.5221354-3.7460938 1.5664062-.9140624 1.0442709-1.3710937 2.4752605-1.3710937 4.2929688 0 1.8229167.453125 3.2617188 1.359375 4.3164062.90625 1.0546876 2.1536458 1.5820313 3.7421875 1.5820313zm0-.75c-1.3645833 0-2.4114583-.4466146-3.140625-1.3398437-.7291667-.8932292-1.09375-2.1575521-1.09375-3.7929688 0-1.6302083.3684896-2.8880208 1.1054688-3.7734375.7369791-.8854167 1.7851562-1.328125 3.1445312-1.328125 1.3645833 0 2.4101562.4388021 3.1367188 1.3164063.7265624.8776041 1.0898437 2.1393229 1.0898437 3.7851562 0 1.6510417-.3632813 2.9192708-1.0898437 3.8046875-.7265626.8854167-1.7773438 1.328125-3.1523438 1.328125zm8.53125.59375v-4.71875h1.765625c1.375 0 2.4375-.2942708 3.1875-.8828125s1.125-1.4348958 1.125-2.5390625c0-2.1875-1.359375-3.28125-4.078125-3.28125h-2.796875v11.421875zm1.5703125-5.40625h-1.5703125v-5.296875h1.890625c1.1354167 0 1.9739583.2122396 2.515625.6367187.5416667.4244792.8125 1.076823.8125 1.9570313 0 .953125-.2864583 1.6419271-.859375 2.0664063-.5729167.4244791-1.5026042.6367187-2.7890625.6367187zm11.484375 5.5625c1.59375 0 2.84375-.5273437 3.75-1.5820313.90625-1.0546874 1.359375-2.4882812 1.359375-4.3007812 0-1.8177083-.4505208-3.2513021-1.3515625-4.3007812-.9010417-1.0494792-2.1484375-1.5742188-3.7421875-1.5742188-1.5833333 0-2.8320313.5221354-3.7460937 1.5664062-.9140626 1.0442709-1.3710938 2.4752605-1.3710938 4.2929688 0 1.8229167.453125 3.2617188 1.359375 4.3164062.90625 1.0546876 2.1536458 1.5820313 3.7421875 1.5820313zm0-.75c-1.3645833 0-2.4114583-.4466146-3.140625-1.3398437-.7291667-.8932292-1.09375-2.1575521-1.09375-3.7929688 0-1.6302083.3684896-2.8880208 1.1054687-3.7734375.7369792-.8854167 1.7851563-1.328125 3.1445313-1.328125 1.3645833 0 2.4101563.4388021 3.1367187 1.3164063.7265626.8776041 1.0898438 2.1393229 1.0898438 3.7851562 0 1.6510417-.3632812 2.9192708-1.0898438 3.8046875-.7265624.8854167-1.7773437 1.328125-3.1523437 1.328125zm13.9765625.59375v-.75h-5.4453125v-10.671875h-.796875v11.421875zm2.765625 0v-4.6875l1.5234375-1.34375 4.3828125 6.03125h.9765625l-4.8046875-6.59375 4.6796875-4.828125h-1.015625l-4.4765625 4.671875-1.265625 1.265625v-5.9375h-.796875v11.421875zm12.578125.15625c1.359375 0 2.419271-.3697917 3.179687-1.109375.760417-.7395833 1.140626-1.765625 1.140626-3.078125v-7.390625h-.796876v7.46875c0 1.0677083-.299479 1.9023437-.898437 2.5039063-.598958.6015624-1.442708.9023437-2.53125.9023437-1.114583 0-1.9765625-.3059896-2.5859375-.9179687-.609375-.6119792-.9140625-1.467448-.9140625-2.5664063v-7.390625h-.8046875v7.359375c0 1.328125.3710937 2.3632813 1.1132813 3.1054687.7421874.7421876 1.7747392 1.1132813 3.0976562 1.1132813z"/></g><g transform="translate(.494783 .614982)"><g transform="translate(.325286 .989378)"><path d="m29.1021909 1.15901867c-1.7250068.05992381-2.4757473.87206044-2.9111378 1.39746095-.7328598.88410527-1.629781 2.27962044-2.9053647 4.09999263-3.5395388-2.24268838-5.6486697-3.12983174-5.6678062-3.13779504-.0041905 0-.0051683-.00433016-.0079619-.00433016-.037854-.01648254-.0705537-.02827175-.108268-.04475429-2.5596266-1.26360876-6.0001892-1.86592686-9.12392519-.9405426-.18491035.04330159-.36829117.09255365-.55075428.14508825-.70768762.22452432-1.37556572.51567302-1.99947035.8640287-4.36759365 2.43817549-6.56983556 7.68571469-4.99794743 12.63923609 1.79651162 5.6611643 7.57069028 8.079889 11.94050625 7.3713214.1310223-.0213575.2601588-.0464305.3897842-.0707353 1.9717629-.3265917 3.9627936-1.1353075 5.8966271-2.3921417 2.7872394-1.8114465 4.481062-3.9361324 5.1415914-4.862968.6710223-.7670233.9336241-1.0065719 1.4032382-1.5692551l.6070561.3630796 1.5217966.987895-2.3004708 3.213584c-1.2229332 1.7083468-2.5453525 3.2964912-2.9053619 5.1632492-.1631492.6782551.3022367 1.8735912.9268285 2.0276163.2996456.0738921 1.1764623.193019 2.0680405-.5716871 1.1094132-.9515593 1.9951751-2.3175484 4.2688996-5.6519257.4034744-.5917064.7382962-1.0338394 1.2242225-1.7165098l.2728517-.3457576c.0786412.0519619.1593386.1059073.2382034.1580829 1.3023469.9960469 2.2534383 1.352817 4.1238141 2.2116844 1.8378451.84392 4.4329357 1.5960798 7.0053559 1.1469879 3.9199935-.68439 7.141098-4.0818116 6.7151794-8.8951057-.425797-4.81332203-4.751349-7.85191174-9.4624654-7.17354209-4.6019502.66266933-7.1716871 3.54264673-9.2249785 6.31239919l-1.5087949-1.0701819s-.292864-.2417779-.4338163-.3573066c1.3168823-1.8430985 4.0673167-4.31797279 3.5449012-6.68486409-.4496087-2.03704774-1.9706161-2.65291644-3.1803814-2.61085943zm-17.674719 6.94399898c2.5592495-.02254476 4.9667046 1.25266883 6.8220128 2.21168725.0785016.0406476 1.1396056.726081 1.9669844 1.2581458-2.568998 3.6179049-5.7169424 6.2304796-8.9766719 6.0532643-2.95283301-.2791709-4.19093714-1.7492877-4.61321142-3.3839366-.42228965-1.6346489.10101841-3.5013999.96147543-4.61682361.72153295-.74053816 1.68825346-1.25667492 2.73429129-1.42849841.370649-.06088762.7395157-.09062603 1.1051194-.09383873zm29.0235049 1.58697857c1.8600895-.00694974 3.6167692 1.05068178 4.3757287 2.69318078.9484151 2.147214-.5168868 4.1350418-1.6724791 4.8622431-1.3795634.8681437-3.2308948.7823828-5.6851282-.5298215-1.3954845-.7461157-2.5954036-1.5506885-3.7405225-2.4130773l.0086604-.0086603c.0069841.0041904.0265396.0167758.0346273.0216507-.0125715-.0097777-.0196254-.0159238-.0317499-.0259809 1.6895162-2.0592852 3.3176782-3.4937048 4.8492526-4.2198151.6099601-.25683011 1.2415669-.37736357 1.8615981-.37971948z" fill="url(#a)"/><path d="m13.3943138 2.24227632c-7.19416485-.19858807-8.65440612 7.25440012-6.91116523 10.98078248 0 0-.33008241-4.95020255 4.71859913-5.16469067 2.3194774-.09854603 6.0352146 1.09057701 9.6429226 2.52207297l2.4412276-3.92386548s-6.5909416-4.2876673-9.8915841-4.4142993zm15.3435612 8.21328868-1.9958581 2.6714886c1.7501454.8046468 3.4153219 1.6790498 4.1615242 2.0150603 2.8213261 1.2704239 5.7748421 2.6396243 8.8106536 2.9696089 3.0358114.3299804 4.2898254-1.567815 4.2898254-1.567815s-1.9739211 2.5614286-6.0056145.4294889c-3.151301-1.6663959-4.2609614-2.679431-4.2609614-2.679431l-3.0569468-2.4109122z" fill="url(#b)"/><path d="m28.0758114 1.26827859c-.730243.21998315-1.5626554.72003153-2.3033721 1.79811268-.8678955 1.26318364-2.4867043 3.59038235-2.4867043 3.59038235l-3.0648887 4.92648348-.004324-.0100894s-4.4275956 7.7082098-9.8392557 8.8301412c-5.41165637 1.1219277-9.1730123-3.1341843-9.1730123-3.1341843s1.32762305 3.2694826 4.68467314 5.0304307c-.00073916-.0001146-.016594-.0022175-.016594-.0022175s3.73577013 2.253021 8.34290606.9860196c3.556555-.9780848 4.5265941-2.0420555 4.5265941-2.0420555s2.424608-3.2355443 3.5287333-5.7719087c1.5349925-3.5261499 2.283984-6.13654785 2.8700625-7.81857279 1.5782367-4.52949526 1.4382595-5.37683858 2.935182-6.38254182z" fill="url(#c)"/></g><path d="m38.9496674 9.08518417c-1.0751099.00168326-2.3143678.30591742-3.7073171 1.11451173-1.4358792.8335136-2.7441961 1.9217538-3.8430214 2.9833215l2.6660717 2.0958918s1.7414935-2.0272225 2.9149106-2.9738427c4.1052322-3.31178498 6.9442058-.5065182 6.9442058-.5065182s-1.7495239-2.71842055-4.9748496-2.71336413zm-10.8779705 7.91919833-.0029333.0036317s-3.6824145 4.8999993-4.1490757 5.7399886c-.4666612.8399879-.9333252 2.0066849-.9333252 2.0066849s2.020825-1.786928 4.2135391-3.5387342c1.2406645-.9911915 3.3838501-2.5700456 3.3838501-2.5700456z" fill="url(#d)"/></g></g></svg>