<svg height="29" viewBox="0 0 152 29" width="152" xmlns="http://www.w3.org/2000/svg" xmlns:xlink="http://www.w3.org/1999/xlink"><linearGradient id="a" x1="21.415226%" x2="57.018781%" y1="55.868403%" y2="37.021056%"><stop offset="0" stop-color="#64bc46"/><stop offset=".39748996" stop-color="#2874ba"/><stop offset="1" stop-color="#e3158f"/></linearGradient><linearGradient id="b" x1="15.305649%" x2="90.106605%" y1="47.921852%" y2="55.788273%"><stop offset="0" stop-color="#3070b8"/><stop offset="1" stop-color="#e3158f"/></linearGradient><linearGradient id="c" x1="29.531226%" x2="76.609524%" y1="82.130558%" y2="40.027644%"><stop offset="0" stop-color="#a9d04a"/><stop offset="1" stop-color="#64bc46"/></linearGradient><linearGradient id="d" x1="12.479706%" x2="78.490975%" y1="65.761288%" y2="25.146949%"><stop offset="0" stop-color="#2b72b9"/><stop offset="1" stop-color="#db1991"/></linearGradient><g fill="none" fill-rule="nonzero"><g transform="translate(.494783 .614982)"><g transform="translate(.325286 .989378)"><path d="m29.1021909 1.15901867c-1.7250068.05992381-2.4757473.87206044-2.9111378 1.39746095-.7328598.88410527-1.629781 2.27962044-2.9053647 4.09999263-3.5395388-2.24268838-5.6486697-3.12983174-5.6678062-3.13779504-.0041905 0-.0051683-.00433016-.0079619-.00433016-.037854-.01648254-.0705537-.02827175-.108268-.04475429-2.5596266-1.26360876-6.0001892-1.86592686-9.12392519-.9405426-.18491035.04330159-.36829117.09255365-.55075428.14508825-.70768762.22452432-1.37556572.51567302-1.99947035.8640287-4.36759365 2.43817549-6.56983556 7.68571469-4.99794743 12.63923609 1.79651162 5.6611643 7.57069028 8.079889 11.94050625 7.3713214.1310223-.0213575.2601588-.0464305.3897842-.0707353 1.9717629-.3265917 3.9627936-1.1353075 5.8966271-2.3921417 2.7872394-1.8114465 4.481062-3.9361324 5.1415914-4.862968.6710223-.7670233.9336241-1.0065719 1.4032382-1.5692551l.6070561.3630796 1.5217966.987895-2.3004708 3.213584c-1.2229332 1.7083468-2.5453525 3.2964912-2.9053619 5.1632492-.1631492.6782551.3022367 1.8735912.9268285 2.0276163.2996456.0738921 1.1764623.193019 2.0680405-.5716871 1.1094132-.9515593 1.9951751-2.3175484 4.2688996-5.6519257.4034744-.5917064.7382962-1.0338394 1.2242225-1.7165098l.2728517-.3457576c.0786412.0519619.1593386.1059073.2382034.1580829 1.3023469.9960469 2.2534383 1.352817 4.1238141 2.2116844 1.8378451.84392 4.4329357 1.5960798 7.0053559 1.1469879 3.9199935-.68439 7.141098-4.0818116 6.7151794-8.8951057-.425797-4.81332203-4.751349-7.85191174-9.4624654-7.17354209-4.6019502.66266933-7.1716871 3.54264673-9.2249785 6.31239919l-1.5087949-1.0701819s-.292864-.2417779-.4338163-.3573066c1.3168823-1.8430985 4.0673167-4.31797279 3.5449012-6.68486409-.4496087-2.03704774-1.9706161-2.65291644-3.1803814-2.61085943zm-17.674719 6.94399898c2.5592495-.02254476 4.9667046 1.25266883 6.8220128 2.21168725.0785016.0406476 1.1396056.726081 1.9669844 1.2581458-2.568998 3.6179049-5.7169424 6.2304796-8.9766719 6.0532643-2.95283301-.2791709-4.19093714-1.7492877-4.61321142-3.3839366-.42228965-1.6346489.10101841-3.5013999.96147543-4.61682361.72153295-.74053816 1.68825346-1.25667492 2.73429129-1.42849841.370649-.06088762.7395157-.09062603 1.1051194-.09383873zm29.0235049 1.58697857c1.8600895-.00694974 3.6167692 1.05068178 4.3757287 2.69318078.9484151 2.147214-.5168868 4.1350418-1.6724791 4.8622431-1.3795634.8681437-3.2308948.7823828-5.6851282-.5298215-1.3954845-.7461157-2.5954036-1.5506885-3.7405225-2.4130773l.0086604-.0086603c.0069841.0041904.0265396.0167758.0346273.0216507-.0125715-.0097777-.0196254-.0159238-.0317499-.0259809 1.6895162-2.0592852 3.3176782-3.4937048 4.8492526-4.2198151.6099601-.25683011 1.2415669-.37736357 1.8615981-.37971948z" fill="url(#a)"/><path d="m13.3943138 2.24227632c-7.19416485-.19858807-8.65440612 7.25440012-6.91116523 10.98078248 0 0-.33008241-4.95020255 4.71859913-5.16469067 2.3194774-.09854603 6.0352146 1.09057701 9.6429226 2.52207297l2.4412276-3.92386548s-6.5909416-4.2876673-9.8915841-4.4142993zm15.3435612 8.21328868-1.9958581 2.6714886c1.7501454.8046468 3.4153219 1.6790498 4.1615242 2.0150603 2.8213261 1.2704239 5.7748421 2.6396243 8.8106536 2.9696089 3.0358114.3299804 4.2898254-1.567815 4.2898254-1.567815s-1.9739211 2.5614286-6.0056145.4294889c-3.151301-1.6663959-4.2609614-2.679431-4.2609614-2.679431l-3.0569468-2.4109122z" fill="url(#b)"/><path d="m28.0758114 1.26827859c-.730243.21998315-1.5626554.72003153-2.3033721 1.79811268-.8678955 1.26318364-2.4867043 3.59038235-2.4867043 3.59038235l-3.0648887 4.92648348-.004324-.0100894s-4.4275956 7.7082098-9.8392557 8.8301412c-5.41165637 1.1219277-9.1730123-3.1341843-9.1730123-3.1341843s1.32762305 3.2694826 4.68467314 5.0304307c-.00073916-.0001146-.016594-.0022175-.016594-.0022175s3.73577013 2.253021 8.34290606.9860196c3.556555-.9780848 4.5265941-2.0420555 4.5265941-2.0420555s2.424608-3.2355443 3.5287333-5.7719087c1.5349925-3.5261499 2.283984-6.13654785 2.8700625-7.81857279 1.5782367-4.52949526 1.4382595-5.37683858 2.935182-6.38254182z" fill="url(#c)"/></g><path d="m38.9496674 9.08518417c-1.0751099.00168326-2.3143678.30591742-3.7073171 1.11451173-1.4358792.8335136-2.7441961 1.9217538-3.8430214 2.9833215l2.6660717 2.0958918s1.7414935-2.0272225 2.9149106-2.9738427c4.1052322-3.31178498 6.9442058-.5065182 6.9442058-.5065182s-1.7495239-2.71842055-4.9748496-2.71336413zm-10.8779705 7.91919833-.0029333.0036317s-3.6824145 4.8999993-4.1490757 5.7399886c-.4666612.8399879-.9333252 2.0066849-.9333252 2.0066849s2.020825-1.786928 4.2135391-3.5387342c1.2406645-.9911915 3.3838501-2.5700456 3.3838501-2.5700456z" fill="url(#d)"/></g><path d="m65.2287695 21c1.3206239 0 2.3513865-.30299 3.0922877-.9089701s1.1113518-1.4352159 1.1113518-2.4877076c0-.7601329-.1975736-1.4019934-.592721-1.9255814-.3951473-.5235881-1.1256499-1.0458472-2.1915078-1.5667774-.8058925-.3933555-1.3167244-.6657808-1.5324956-.8172758-.2157713-.151495-.3730503-.3083056-.4718371-.4704319-.0987868-.1621262-.1481803-.3521595-.1481803-.5700997 0-.3508305.1221838-.6352159.3665512-.8531561s.5953206-.3269103 1.0528596-.3269103c.3847487 0 .7759965.0504983 1.1737435.151495s.9007799.2790698 1.5090988.5342193l.779896-1.9215947c-.5875217-.26046511-1.1503466-.46245847-1.6884749-.60598006-.5381282-.1435216-1.1035528-.2152824-1.6962738-.2152824-1.2062392 0-2.1512132.29501662-2.834922.88504984-.6837089.59003322-1.0255633 1.40066442-1.0255633 2.43189372 0 .5475083.1039862 1.0259136.3119584 1.4352159.2079723.4093023.4861352.7681063.8344888 1.076412.3483535.3083056.8708838.6299003 1.567591.964784.7435008.3614618 1.2361351.6245847 1.4779029.7893688.2417678.164784.4250433.3362126.5498267.5142857.1247833.1780731.187175.3813954.187175.6099668 0 .4093023-.1416811.717608-.4250433.9249169-.2833622.207309-.690208.3109635-1.2205373.3109635-.441941 0-.929376-.0717608-1.462305-.2152824-.5329289-.1435216-1.1841421-.3906977-1.9536395-.7415282v2.2963455c.9358752.4677741 2.0121317.7016611 3.2287695.7016611zm10.6689775-.1594684v-9.6h3.0961871v-2.0571429h-8.610052v2.0571429h3.0961872v9.6zm9.4055459.1594684c.9722704 0 1.8145581-.1727575 2.5268631-.5182724.712305-.345515 1.2569324-.8425249 1.6338821-1.4910299.3769498-.648505.5654246-1.4033223.5654246-2.2644519v-7.5428571h-2.4098786v7.1202658c0 .9036545-.1780763 1.5667774-.5342288 1.9893688-.3561525.4225913-.9293761.633887-1.7196707.633887-.8162912 0-1.4012132-.2099668-1.7547661-.6299003-.3535528-.4199336-.5303292-1.0790698-.5303292-1.9774087v-7.1362126h-2.4098787v7.5109635c0 1.3342192.4055459 2.385382 1.2166378 3.1534883.8110918.7681063 1.94974 1.1521595 3.4159445 1.1521595zm10.7469671-.1594684c2.017331 0 3.5602253-.510299 4.628683-1.530897 1.068457-1.0205981 1.602686-2.4903655 1.602686-4.4093024 0-1.8019933-.514731-3.2053156-1.544194-4.2099668-1.0294627-1.00465111-2.47487-1.5069767-4.3362218-1.5069767h-3.5797227v11.6571429zm.2261698-2.0411961h-1.0372617v-7.5906976h1.2868284c2.1629116 0 3.2443675 1.2518272 3.2443675 3.7554817 0 2.5568106-1.1646448 3.8352159-3.4939342 3.8352159zm13.1178512 2.0411961v-4.5368771l3.782495-7.1202658h-2.604852l-2.378683 4.8-2.363085-4.8h-2.620451l3.782496 7.2v4.4571429zm7.635182 0v-11.6571429h-2.417678v11.6571429zm5.030329 0v-5.4857143c0-.6644519-.049393-1.7754153-.14818-3.3328904h.07019l4.960139 8.8186047h3.07279v-11.6571429h-2.17591v5.517608c0 .6272425.038995 1.6983388.116985 3.213289h-.054593l-4.95234-8.730897h-3.049393v11.6571429zm13.20364 0v-4.6086379h3.868284v-2.0172758h-3.868284v-3.00598h4.156845v-2.0252492h-6.535528v11.6571429zm11.308492.1594684c1.746967 0 3.088388-.5182724 4.024263-1.5548173.935875-1.0365448 1.403813-2.5196013 1.403813-4.4491694 0-1.9348837-.464038-3.4179402-1.392114-4.4491694-.928077-1.03122928-2.268198-1.5468439-4.020364-1.5468439-1.752167 0-3.097487.51162791-4.035962 1.5348837-.938475 1.0232558-1.407713 2.5049834-1.407713 4.4451827 0 1.9401994.467938 3.4285715 1.403813 4.4651163.935876 1.0365449 2.277297 1.5548173 4.024264 1.5548173zm0-2.0730897c-.961872 0-1.684576-.3295681-2.168111-.9887043-.483536-.6591362-.725303-1.6398671-.725303-2.9421927s.244367-2.2843854.733102-2.9461794 1.214038-.992691 2.17591-.992691c1.918544 0 2.877816 1.3129568 2.877816 3.9388704 0 2.620598-.964471 3.930897-2.893414 3.930897z" fill="#2a2a2a"/></g></svg>