<?xml version="1.0" encoding="UTF-8"?>
<svg width="29px" height="29px" viewBox="0 0 29 29" version="1.1" xmlns="http://www.w3.org/2000/svg" xmlns:xlink="http://www.w3.org/1999/xlink">
    <!-- Generator: sketchtool 55.2 (78181) - https://sketchapp.com -->
    <title>C1D91BB3-BDEB-4B10-B918-04871FDD79AF</title>
    <desc>Created with sketchtool.</desc>
    <g id="🖥-Oppija---Etusivu" stroke="none" stroke-width="1" fill="none" fill-rule="evenodd">
        <g id="Etusivu" transform="translate(-787.000000, -1236.000000)" fill="#FFCC80">
            <g id="Group-9" transform="translate(-1.000000, 1050.000000)">
                <g id="Group-13-Copy-2" transform="translate(739.000000, 137.000000)">
                    <g id="icons-/-sun" transform="translate(49.000000, 49.000000)">
                        <g id="brightness_high">
                            <path d="M24.1666667,10.5004167 L24.1666667,4.83333333 L18.4995833,4.83333333 L14.5,0.83375 L10.5004167,4.83333333 L4.83333333,4.83333333 L4.83333333,10.5004167 L0.83375,14.5 L4.83333333,18.4995833 L4.83333333,24.1666667 L10.5004167,24.1666667 L14.5,28.16625 L18.4995833,24.1666667 L24.1666667,24.1666667 L24.1666667,18.4995833 L28.16625,14.5 L24.1666667,10.5004167 Z M14.5,21.75 C10.5004167,21.75 7.25,18.4995833 7.25,14.5 C7.25,10.5004167 10.5004167,7.25 14.5,7.25 C18.4995833,7.25 21.75,10.5004167 21.75,14.5 C21.75,18.4995833 18.4995833,21.75 14.5,21.75 Z M14.5,9.66666667 C11.8295833,9.66666667 9.66666667,11.8295833 9.66666667,14.5 C9.66666667,17.1704167 11.8295833,19.3333333 14.5,19.3333333 C17.1704167,19.3333333 19.3333333,17.1704167 19.3333333,14.5 C19.3333333,11.8295833 17.1704167,9.66666667 14.5,9.66666667 Z" id="Shape"></path>
                        </g>
                    </g>
                </g>
            </g>
        </g>
    </g>
</svg>